<?xml version="1.0" standalone="no"?>
<!DOCTYPE svg PUBLIC "-//W3C//DTD SVG 1.1//EN" "http://www.w3.org/Graphics/SVG/1.1/DTD/svg11.dtd" >
<svg xmlns="http://www.w3.org/2000/svg">
<metadata>
This is a custom SVG webfont generated by Font Squirrel.
Copyright   : Typeface  FontSite Inc 19962008 All Rights Reserved wwwfontsitecom
Designer    : FontSitecom
Foundry URL : httpwwwfontsitecom
</metadata>
<defs>
<font id="webfontHWm5XRJ1" horiz-adv-x="1097" >
<font-face units-per-em="2048" ascent="1552" descent="-496" />
<missing-glyph horiz-adv-x="512" />
<glyph unicode="ft" horiz-adv-x="1308" d="M135 0v819h-203v195h203q4 150 15.5 212t44.5 115q88 139 307 140q61 0 137 -19l-16 -211q-39 10 -70 11q-104 0 -139 -88q-16 -37 -17 -160h353v200l262 86v-286h231v-195h-231v-375q0 -135 24 -178q35 -63 127 -63q41 0 90 14l9 -205q-94 -20 -172 -20q-207 0 -289 131 q-53 86 -53 266v430h-351v-819h-262z" />
<glyph unicode="&#xfb00;" horiz-adv-x="1275" d="M135 0v819h-203v195h203q4 150 15.5 212t44.5 115q88 139 307 140q61 0 137 -19l-16 -211q-39 10 -70 11q-104 0 -139 -88q-16 -37 -17 -160h351q4 150 15 212t44 115q88 139 305 140q61 0 137 -19l-16 -211q-39 10 -70 11q-125 0 -147 -119q-6 -37 -6 -129h227v-195 h-227v-819h-262v819h-351v-819h-262z" />
<glyph unicode="&#xfb01;" horiz-adv-x="1142" d="M135 0v819h-203v195h203q4 150 15.5 212t44.5 115q88 139 307 140q61 0 137 -19l-16 -211q-39 10 -70 11q-104 0 -139 -88q-16 -37 -17 -160h230v-195h-230v-819h-262zM743 1198v248h271v-248h-271zM748 0v1014h262v-1014h-262z" />
<glyph unicode="&#xfb02;" horiz-adv-x="1150" d="M135 0v819h-203v195h203q4 150 15.5 213t44.5 114q86 139 309 140q63 0 121 -19l-17 -211q-43 10 -65 11q-53 0 -92 -33t-48 -86q-6 -37 -6 -129h215v-195h-215v-819h-262zM745 0v1475h263v-1475h-263z" />
<glyph unicode="&#xfb03;" horiz-adv-x="1755" d="M135 0v819h-203v195h203q4 150 15.5 212t44.5 115q88 139 307 140q61 0 137 -19l-16 -211q-39 10 -70 11q-104 0 -139 -88q-16 -37 -17 -160h351q4 150 15 212t44 115q88 139 307 140q61 0 137 -19l-16 -211q-39 10 -70 11q-104 0 -139 -88q-16 -37 -16 -160h229v-195 h-229v-819h-262v819h-351v-819h-262zM1356 1198v248h270v-248h-270zM1360 0v1014h262v-1014h-262z" />
<glyph unicode="&#xfb04;" horiz-adv-x="1763" d="M135 0v819h-203v195h203q4 150 15.5 212t44.5 115q88 139 307 140q61 0 137 -19l-16 -211q-39 10 -70 11q-104 0 -139 -88q-16 -37 -17 -160h351q4 150 15 213t44 114q86 139 309 140q63 0 121 -19l-16 -211q-43 10 -66 11q-53 0 -92 -33t-47 -86q-6 -37 -6 -129h215 v-195h-215v-819h-262v819h-351v-819h-262zM1360 0v1475h262v-1475h-262z" />
<glyph unicode=" "  horiz-adv-x="512" />
<glyph unicode="&#x09;" horiz-adv-x="512" />
<glyph unicode="&#xa0;" horiz-adv-x="512" />
<glyph unicode="!" horiz-adv-x="741" d="M311 393l-45 973h307l-43 -973h-219zM287 0v252h270v-252h-270z" />
<glyph unicode="&#x22;" horiz-adv-x="833" d="M508 926l-47 549h287l-48 -549h-192zM133 926l-47 549h289l-49 -549h-193z" />
<glyph unicode="#" d="M129 0l66 377h-185l33 184h184l47 273h-184l33 184h184l62 348h211l-62 -348h201l61 348h211l-61 -348h184l-33 -184h-184l-47 -273h184l-33 -184h-184l-65 -377h-211l65 377h-200l-68 -377h-209zM438 561h201l49 273h-203z" />
<glyph unicode="$" d="M100 43l27 248q180 -88 328 -88q16 0 34 2v379q-186 66 -253 110q-158 102 -158 297q0 164 111.5 263.5t312.5 115.5v176h106v-170q182 0 324 -45l-23 -229q-131 59 -301 63v-344q201 -68 273 -123q143 -109 143 -307q0 -203 -166 -317q-98 -66 -260 -84v-172h-109v166 q-143 2 -216 12t-173 47zM502 854v311q-160 -35 -160 -155q0 -55 37 -91t123 -65zM598 209q160 39 160 168q0 63 -35 102t-125 74v-344z" />
<glyph unicode="%" horiz-adv-x="1482" d="M291 -63l776 1493h133l-774 -1493h-135zM348 672q-258 0 -258 346q0 358 258 358t258 -364q0 -164 -66.5 -252t-191.5 -88zM348.5 784q100.5 0 100.5 230q0 250 -103 250q-98 0 -98 -246q0 -234 100.5 -234zM883 336q0 358 256 358q258 0 258 -362q0 -166 -65.5 -254 t-190.5 -88q-127 0 -192.5 89t-65.5 257zM1040 336q0 -233 101 -234q98 0 98 230q0 250 -100 250q-99 0 -99 -246z" />
<glyph unicode="&#x26;" horiz-adv-x="1425" d="M121 389q0 260 285 365q-182 164 -183 321q0 145 116 231.5t308 86.5q174 0 279.5 -86t105.5 -226q0 -150 -121 -258q-53 -45 -149 -100l260 -281q78 111 84 299h235q-8 -274 -172 -465l242 -276h-330l-96 113q-98 -76 -184 -108t-197 -32q-213 0 -348 117t-135 299z M610 866l24 13q11 6 17 10q141 84 142 184q0 57 -44 93t-112 36t-113 -39t-45 -96q0 -43 26.5 -84t104.5 -117zM391 387q0 -90 68.5 -153.5t165.5 -63.5q115 0 233 94l-309 340q-158 -94 -158 -217z" />
<glyph unicode="'" horiz-adv-x="460" d="M133 926l-47 549h289l-49 -549h-193z" />
<glyph unicode="(" horiz-adv-x="727" d="M471 -66q51 -133 170 -350h-248q-170 274 -239.5 487.5t-69.5 456.5q0 246 68.5 455t240.5 492h248q-289 -500 -289 -943q0 -293 119 -598z" />
<glyph unicode=")" horiz-adv-x="729" d="M256 -66q119 305 119 598q0 442 -289 943h248q174 -287 241.5 -494t67.5 -455q0 -242 -69.5 -453.5t-239.5 -488.5h-248q125 235 170 350z" />
<glyph unicode="*" d="M399 717l-166 121l195 209l-278 65l63 195l264 -119l-26 287h200l-26 -287l262 110l61 -186l-278 -65l188 -209l-166 -121l-143 246z" />
<glyph unicode="+" d="M455 246v375h-383v178h383v375h188v-375h385v-178h-385v-375h-188z" />
<glyph unicode="," horiz-adv-x="546" d="M43 -221l123 491h278l-172 -491h-229z" />
<glyph unicode="-" horiz-adv-x="499" d="M0 403v220h500v-220h-500z" />
<glyph unicode="." horiz-adv-x="546" d="M133 0v268h279v-268h-279z" />
<glyph unicode="/" horiz-adv-x="892" d="M-72 -416l666 1891h217l-664 -1891h-219z" />
<glyph unicode="0" d="M188 158q-117 172 -116 510q0 328 96 499q57 104 156.5 163t222.5 59q125 0 224 -57.5t157 -164.5q96 -180 96 -505q0 -330 -117 -504q-59 -84 -153.5 -132.5t-206.5 -48.5q-111 0 -205.5 48.5t-153.5 132.5zM549 182q199 0 199 482q0 268 -49.5 394t-151.5 126 q-199 0 -199 -514q0 -488 201 -488z" />
<glyph unicode="1" d="M498 0v1065l-232 -197l-141 181l405 317h240v-1366h-272z" />
<glyph unicode="2" d="M80 0v229q221 201 352 346q125 137 178.5 228.5t53.5 167.5q0 88 -59.5 141t-155.5 53q-152 0 -320 -114l-23 241q215 96 418 97q188 0 299 -93q133 -111 133 -295q0 -106 -48 -207.5t-167 -250.5q-129 -162 -311 -328l565 4v-219h-915z" />
<glyph unicode="3" d="M86 27l16 237q152 -72 308 -71q133 0 208.5 54t75.5 148q0 201 -334 201q-55 0 -100 -2v223q70 -4 84 -4q166 0 252 47q92 51 92 150q0 76 -64.5 120t-177.5 44q-168 0 -307 -72l-16 225q199 61 364 62q229 0 356.5 -92.5t127.5 -260.5q0 -125 -68.5 -211t-185.5 -108 q90 -25 131 -53q61 -41 98 -122t37 -171q0 -182 -146.5 -288t-402.5 -106q-180 1 -348 50z" />
<glyph unicode="4" d="M31 276v234l508 856h350v-881h176v-209h-176v-276h-273v276h-585zM283 485h340l4 570q0 55 12 94q-25 -61 -35 -80z" />
<glyph unicode="5" d="M139 20l6 250q141 -70 291 -69q127 0 204 62.5t77 164.5q0 111 -84 176.5t-227 65.5q-113 0 -246 -41l12 737h793v-213h-533l-6 -279q61 6 106 7q215 0 346.5 -121t131.5 -320q0 -219 -150 -344q-139 -119 -409 -119q-106 0 -273 35z" />
<glyph unicode="6" d="M569 -23q-246 0 -363.5 159t-117.5 491q0 762 563 762q131 0 299 -48l-35 -221q-117 55 -225 56q-158 0 -238.5 -100.5t-95.5 -313.5q92 135 269 135q180 0 288.5 -127t108.5 -336q0 -211 -122 -334t-331 -123zM373 446q0 -119 52 -191.5t138 -72.5q82 0 132 67.5 t50 178.5q0 119 -51 188.5t-139 69.5q-84 0 -133 -64.5t-49 -175.5z" />
<glyph unicode="7" d="M211 0l512 1155h-619v211h889v-211l-479 -1155h-303z" />
<glyph unicode="8" d="M72 373q0 133 66.5 221t191.5 121q-109 31 -171.5 113.5t-62.5 197.5q0 166 122 264.5t329 98.5q201 0 320.5 -89.5t119.5 -240.5q0 -242 -231 -322q129 -35 199.5 -127t70.5 -227q0 -188 -135 -305q-121 -100 -344 -101q-217 0 -346 108t-129 288zM432 893 q49 -35 141 -74l11.5 6t13.5 9q127 74 127 192q0 74 -49 121t-127 47q-80 0 -133.5 -46t-53.5 -116q0 -86 70 -139zM348 377q0 -88 59.5 -144.5t149.5 -56.5q88 0 140.5 52.5t52.5 138.5q0 88 -50.5 140t-177.5 95q-25 -12 -39 -18q-135 -72 -135 -207z" />
<glyph unicode="9" d="M145 23l33 223q125 -55 223 -56q193 0 277 160q45 88 61 264q-78 -141 -268 -141q-180 0 -289.5 126t-109.5 331q0 219 121.5 339t343.5 120q238 0 354.5 -158t116.5 -479q0 -377 -127 -570q-63 -96 -176 -150.5t-252 -54.5q-173 1 -308 46zM541 684q82 0 131 63.5 t49 165.5q0 123 -51.5 197t-137.5 74q-82 0 -133 -70t-51 -182q0 -111 53.5 -179.5t139.5 -68.5z" />
<glyph unicode=":" horiz-adv-x="546" d="M133 745v269h279v-269h-279zM133 0v268h279v-268h-279z" />
<glyph unicode=";" horiz-adv-x="546" d="M170 745v269h279v-269h-279zM43 -221l123 491h280l-174 -491h-229z" />
<glyph unicode="&#x3c;" horiz-adv-x="1024" d="M68 588v217l886 450v-256l-612 -303l612 -303v-256z" />
<glyph unicode="=" d="M72 778v178h956v-178h-956zM72 463v178h956v-178h-956z" />
<glyph unicode="&#x3e;" horiz-adv-x="1024" d="M68 135v258l612 303l-612 303v256l886 -450v-219z" />
<glyph unicode="?" horiz-adv-x="1040" d="M418 389q2 141 29.5 210t123.5 173q125 139 125 236q0 76 -60.5 121t-162.5 45q-125 0 -297 -76l-22 225q203 66 395 66q180 0 293 -76q66 -47 104.5 -120t38.5 -155q0 -88 -37 -155.5t-155 -198.5q-88 -94 -112 -146.5t-28 -148.5h-235zM399 0v254h271v-254h-271z" />
<glyph unicode="@" horiz-adv-x="1574" d="M317 154q-102 96 -159.5 233t-57.5 283q0 305 210 516t515 211q281 0 466.5 -173t185.5 -436q0 -188 -102.5 -332.5t-235.5 -144.5q-59 0 -102.5 32t-57.5 83q-41 -61 -109.5 -96t-146.5 -35q-125 0 -208 92t-83 231q0 166 107.5 290t253.5 124q141 0 200 -102l17 80 l178 -2l-76 -394q-14 -76 -14 -90q0 -66 47 -65q63 0 118.5 104.5t55.5 224.5q0 197 -135 322t-348 125q-238 0 -400 -164t-162 -403q0 -231 154 -392q143 -145 408 -145q195 0 376 64l41 -162q-186 -63 -422 -64q-317 1 -514 185zM637 625q0 -66 38 -107t97 -41 q70 0 123 65.5t53 149.5q0 66 -35.5 107t-95.5 41q-72 0 -126 -64.5t-54 -150.5z" />
<glyph unicode="A" horiz-adv-x="1425" d="M18 0l533 1366h307l547 -1366h-301l-119 311h-565l-117 -311h-285zM504 535h397l-176 483q-14 39 -27 90l-10 -41q-8 -35 -20 -72z" />
<glyph unicode="B" horiz-adv-x="1232" d="M166 0v1366h438q236 0 342 -76q137 -96 137 -272q0 -252 -270 -303q152 -20 236 -108.5t84 -229.5q0 -209 -177 -309q-70 -41 -143.5 -54.5t-230.5 -13.5h-416zM442 813h131q233 0 234 168q0 174 -223 174h-142v-342zM442 209h136q135 0 206.5 51t71.5 148 q0 98 -67.5 150t-194.5 52h-152v-401z" />
<glyph unicode="C" horiz-adv-x="1206" d="M100 686q0 319 193 504q199 186 524 186q158 0 338 -59l-22 -234q-135 74 -289 74q-207 0 -329 -124t-122 -337q0 -211 128 -344t331 -133q145 0 299 57l10 -241q-170 -45 -319 -45q-350 0 -546 183t-196 513z" />
<glyph unicode="D" horiz-adv-x="1427" d="M164 0v1366h311q227 0 367.5 -30.5t240.5 -100.5q246 -172 246 -547q0 -389 -246 -563q-178 -125 -524 -125h-395zM440 209h56q141 0 222 20.5t146 71.5q172 135 172 381q0 133 -53 239.5t-152 163.5q-63 37 -144 51.5t-247 16.5v-944z" />
<glyph unicode="E" horiz-adv-x="1099" d="M164 0v1366h809v-223h-533v-332h488v-223h-488v-365h541v-223h-817z" />
<glyph unicode="F" horiz-adv-x="1005" d="M164 0v1366h758v-223h-482v-326h463v-223h-461v-594h-278z" />
<glyph unicode="G" horiz-adv-x="1429" d="M313 150q-100 88 -156.5 231t-56.5 309q0 317 208 501.5t566 184.5q195 0 377 -55l-18 -242q-170 76 -363 76q-225 0 -351 -124t-126 -343q0 -217 126 -348t337 -131q82 0 170 29v331h-291v224h553v-732q-203 -72 -459 -71q-334 0 -516 160z" />
<glyph unicode="H" horiz-adv-x="1423" d="M164 0v1366h276v-555h543v555h277v-1366h-277v588h-543v-588h-276z" />
<glyph unicode="I" horiz-adv-x="630" d="M178 0v1366h277v-1366h-277z" />
<glyph unicode="J" horiz-adv-x="774" d="M27 16l8 234q61 -20 117 -21q115 0 157 80q25 41 25 152v905h276v-932q0 -221 -80 -319q-100 -127 -309 -127q-88 -1 -194 28z" />
<glyph unicode="K" horiz-adv-x="1316" d="M166 0v1366h276v-485q0 -53 -6 -109q47 68 72 94l428 500h332l-559 -631l589 -735h-356l-440 563q-43 55 -66 90q6 -47 6 -121v-532h-276z" />
<glyph unicode="L" horiz-adv-x="1007" d="M164 0v1366h276v-1143h533v-223h-809z" />
<glyph unicode="M" horiz-adv-x="1875" d="M164 0v1366h436l248 -717q55 -156 88 -336q4 14 7 31.5t3 20.5q25 117 62 225l262 776h442v-1366h-276v807q0 104 18 369h-8q-20 -82 -41 -142l-348 -1034h-254l-295 856q-49 143 -94 320h-8q20 -201 20 -357v-819h-262z" />
<glyph unicode="N" horiz-adv-x="1452" d="M164 0v1366h325l457 -827q41 -74 82 -187q0 -4 8 -23.5l13 -31.5q-2 39 -9 74q-14 121 -14 262v733h262v-1366h-334l-446 825q-61 115 -113 242q31 -221 31 -352v-715h-262z" />
<glyph unicode="O" horiz-adv-x="1533" d="M100 680q0 326 168 516q84 94 216 147.5t282 53.5q311 0 490.5 -192.5t179.5 -528.5q0 -143 -43 -274.5t-121 -221.5q-176 -211 -506 -211q-307 0 -486.5 191.5t-179.5 519.5zM393 682q0 -223 103.5 -362.5t271.5 -139.5q180 0 281 154q94 145 94 342q0 227 -104.5 368.5 t-272.5 141.5q-166 0 -269.5 -140.5t-103.5 -363.5z" />
<glyph unicode="P" horiz-adv-x="1124" d="M164 0v1366h375q254 0 379 -88q166 -119 165.5 -334t-163.5 -340q-121 -90 -355 -90q-51 0 -125 4v-518h-276zM440 731q25 -2 56 -2q129 0 180 25q115 51 115 188q0 164 -152 203q-37 10 -199 12v-426z" />
<glyph unicode="Q" horiz-adv-x="1533" d="M100 680q0 340 181 530q180 186 489 187q305 0 485.5 -192.5t180.5 -520.5q0 -260 -123 -453q-74 -115 -232 -196l326 -299h-338l-235 237q-39 -2 -91 -2q-293 0 -468 192.5t-175 516.5zM393 682q0 -223 103.5 -361.5t271.5 -138.5q182 0 279 146q96 150 96 354 q0 225 -103.5 364.5t-271.5 139.5q-166 0 -270.5 -140.5t-104.5 -363.5z" />
<glyph unicode="R" horiz-adv-x="1220" d="M164 0v1366h448q250 0 359 -80q133 -94 133 -280q0 -133 -73 -218.5t-204 -103.5q57 -23 91 -63.5t77 -145.5l197 -475h-307l-150 387q-41 109 -86 144.5t-141 35.5h-66v-567h-278zM440 778h123q248 0 248 197q0 178 -225 178h-146v-375z" />
<glyph unicode="S" horiz-adv-x="1105" d="M143 33l25 246q160 -90 307 -91q111 0 175.5 51.5t64.5 139.5t-66 131q-41 29 -157 76q-174 68 -254 135q-121 100 -121 274q0 190 127 296t356 106q172 0 324 -54l-23 -225q-156 68 -285 68q-100 0 -158.5 -44t-58.5 -120q0 -88 84 -135q37 -20 187 -80 q180 -72 259 -167t79 -243q0 -199 -137.5 -313.5t-374.5 -114.5q-177 1 -353 64z" />
<glyph unicode="T" d="M408 0v1143h-390v223h1059v-223h-393v-1143h-276z" />
<glyph unicode="U" horiz-adv-x="1443" d="M281 131q-117 131 -117 410v825h276v-801q0 -113 14.5 -172t53.5 -108q78 -96 221 -97q168 0 242 138q25 47 33 96t8 153v791h268v-829q0 -291 -138 -429.5t-429 -138.5t-432 162z" />
<glyph unicode="V" horiz-adv-x="1316" d="M494 0l-476 1366h295l291 -879q41 -127 66 -219q43 160 69 240l283 858h274l-465 -1366h-337z" />
<glyph unicode="W" horiz-adv-x="1970" d="M385 0l-367 1366h285l131 -522q113 -451 129 -596h8l37 233q2 8 12 53l17 82l27 132l139 618h368l136 -559q86 -360 112 -559h8q39 258 138 651l116 467h271l-361 -1366h-350l-123 514q0 2 -51 234l-59 272q-8 37 -19 121h-8q-27 -176 -98 -504l-144 -637h-354z" />
<glyph unicode="X" horiz-adv-x="1316" d="M18 0l451 717l-410 649h318l291 -483l293 483h292l-413 -649l456 -717h-325l-320 537l-323 -537h-310z" />
<glyph unicode="Y" horiz-adv-x="1306" d="M518 0v547l-500 819h322l293 -508q18 -35 31 -65q6 18 30 61l299 512h295l-493 -813v-553h-277z" />
<glyph unicode="Z" horiz-adv-x="1093" d="M68 0v236l565 806l54 74t34 31q-20 -4 -94 -4h-541v223h913v-256l-571 -819q-33 -45 -63 -74q43 6 96 6h561v-223h-954z" />
<glyph unicode="[" horiz-adv-x="749" d="M166 -416v1891h436v-183h-196v-1523h196v-185h-436z" />
<glyph unicode="\" horiz-adv-x="892" d="M745 -416l-663 1891h217l666 -1891h-220z" />
<glyph unicode="]" horiz-adv-x="749" d="M147 -231h197v1523h-197v183h437v-1891h-437v185z" />
<glyph unicode="^" horiz-adv-x="1024" d="M12 688l330 686h340l332 -686h-273l-229 479l-229 -479h-271z" />
<glyph unicode="_" horiz-adv-x="1024" d="M0 -96h1024v-234h-1024v234z" />
<glyph unicode="`" horiz-adv-x="1024" d="M477 1186l-278 278h270l164 -278h-156z" />
<glyph unicode="a" horiz-adv-x="1101" d="M76 301q0 328 508 328q51 0 147 -8v10q0 215 -225 215q-170 0 -313 -111l-9 226q166 72 351 71q266 0 372 -147q37 -53 50.5 -129t13.5 -240v-147q0 -160 10 -369h-233l-5 150q-100 -166 -323 -166q-156 0 -250 86t-94 231zM336 293q0 -59 44 -95t113.5 -36t127 38 t88.5 103q27 59 26 158q-49 4 -71 4q-328 0 -328 -172z" />
<glyph unicode="b" horiz-adv-x="1198" d="M131 0v1475h262v-451q0 -92 -10 -188q102 197 328 196q193 0 301 -136t108 -376q0 -254 -110.5 -395t-309.5 -141q-223 0 -317 176l-6 -160h-246zM395 499.5q0 -139.5 63.5 -224.5t166.5 -85q98 0 160.5 87.5t62.5 226.5q0 145 -58.5 227t-158.5 82q-106 0 -171 -87 t-65 -226.5z" />
<glyph unicode="c" horiz-adv-x="882" d="M76 512q0 229 131 360q150 150 385 150q90 0 219 -33l-20 -211q-88 33 -156 33q-129 0 -208 -83t-79 -220q0 -133 80 -215t211 -82q88 0 180 41l15 -221q-133 -39 -238 -39q-240 0 -380 139t-140 381z" />
<glyph unicode="d" horiz-adv-x="1202" d="M500 -16q-201 0 -312.5 143t-111.5 397q0 229 115.5 368.5t304.5 139.5q211 0 315 -186q-10 92 -10 178v451h262v-1180q0 -152 8 -295h-248l-4 172q-92 -188 -319 -188zM575.5 190q102.5 0 166 85t63.5 223q0 143 -65.5 229t-174.5 86q-100 0 -158.5 -81t-58.5 -220 q0 -145 62.5 -233.5t165 -88.5z" />
<glyph unicode="e" horiz-adv-x="1095" d="M74 510q0 244 133 387t356 143q213 0 335 -134t122 -367q0 -51 -6 -115h-682q10 -119 90 -187.5t209 -68.5q143 0 317 104l4 -227q-160 -72 -352 -72q-250 0 -388 141.5t-138 395.5zM328 606h442q-2 119 -58.5 184.5t-154.5 65.5q-94 0 -155.5 -66.5t-73.5 -183.5z" />
<glyph unicode="f" horiz-adv-x="663" d="M135 0v819h-203v195h203q4 150 15.5 212t44.5 115q88 139 307 140q61 0 137 -19l-16 -211q-39 10 -70 11q-104 0 -139 -88q-16 -37 -17 -160h230v-195h-230v-819h-262z" />
<glyph unicode="g" horiz-adv-x="1185" d="M203 -133q166 -86 307 -86q203 0 272 147q18 37 24.5 84t12.5 191q-111 -203 -342 -203q-184 0 -292.5 140.5t-108.5 377.5q0 242 112.5 378t311.5 136q219 0 311 -184l4 164h250v-889q0 -156 -26.5 -248t-92.5 -162q-139 -145 -407 -145q-172 0 -357 72zM571.5 213 q100.5 0 167 86t66.5 213q0 133 -66.5 218t-169.5 85q-100 0 -160.5 -80t-60.5 -213q0 -139 61.5 -224t162 -85z" />
<glyph unicode="h" horiz-adv-x="1189" d="M133 0v1475h262v-605q113 162 320 162t291 -137q59 -96 59 -313v-582h-262v492q0 176 -27 227q-51 94 -153 94q-68 0 -122.5 -40t-80.5 -109q-25 -70 -25 -250v-414h-262z" />
<glyph unicode="i" horiz-adv-x="528" d="M129 1198v248h270v-248h-270zM133 0v1014h262v-1014h-262z" />
<glyph unicode="j" horiz-adv-x="540" d="M143 1198v248h271v-248h-271zM147 -25v1039h263v-1075q0 -360 -310 -361q-57 0 -127 10l11 193q14 -2 36 -2q74 0 109 63q18 31 18 133z" />
<glyph unicode="k" horiz-adv-x="1079" d="M133 0v1475h262v-687q0 -92 -6 -198q59 88 86 121l244 303h305l-377 -455l426 -559h-332l-262 371q-53 76 -90 145q6 -53 6 -133v-383h-262z" />
<glyph unicode="l" horiz-adv-x="526" d="M133 0v1475h262v-1475h-262z" />
<glyph unicode="m" horiz-adv-x="1755" d="M141 0v766q0 133 -8 248h252l4 -154q111 170 318 170q197 0 282 -180q104 180 320 180q197 0 276 -147q47 -92 47 -295v-588h-262v492q0 162 -18 217q-37 102 -140 102q-111 0 -163 -119q-31 -70 -31 -223v-469h-262v518q0 162 -23 209q-41 84 -131 84q-98 0 -160 -102 q-39 -66 -39 -201v-508h-262z" />
<glyph unicode="n" horiz-adv-x="1198" d="M143 0v645q0 178 -10 369h246l8 -162q51 72 90 102q98 76 254 76q190 0 281 -131q63 -96 63 -328v-571h-262v510q0 160 -42 230.5t-138 70.5q-131 0 -193 -123q-35 -68 -34 -207v-481h-263z" />
<glyph unicode="o" horiz-adv-x="1202" d="M76 510q0 238 145.5 384t380.5 146q238 0 382 -148.5t144 -395.5q0 -233 -146 -378t-381.5 -145t-380 147.5t-144.5 389.5zM348 510q0 -154 69.5 -248t184.5 -94q113 0 183.5 93t70.5 239q0 156 -69.5 251t-184.5 95q-113 0 -183.5 -94.5t-70.5 -241.5z" />
<glyph unicode="p" horiz-adv-x="1206" d="M406 -12v-404h-263v1135q0 111 -10 295h252l4 -160q121 176 326 176q193 0 305.5 -138t112.5 -376q0 -248 -113 -390t-309 -142q-215 0 -308 159q3 -63 3 -155zM406 498q0 -143 61 -225.5t168 -82.5q100 0 162.5 86t62.5 224q0 147 -57.5 229t-159.5 82q-111 0 -174 -84 t-63 -229z" />
<glyph unicode="q" horiz-adv-x="1196" d="M496 -16q-195 0 -307.5 144t-112.5 394q0 231 113.5 369.5t304.5 138.5q225 0 317 -178l6 162h248v-1430h-262v402q0 113 8 182q-84 -184 -315 -184zM569 190q106 0 171 83t65 221q0 141 -65.5 229t-172.5 88q-102 0 -160.5 -82t-58.5 -223q0 -150 58.5 -233t162.5 -83z " />
<glyph unicode="r" horiz-adv-x="768" d="M141 0v709q0 203 -8 305h240l4 -258q72 266 285 266q41 0 77 -12v-244q-55 14 -90 14q-133 0 -200 -112q-45 -74 -46 -250v-418h-262z" />
<glyph unicode="s" horiz-adv-x="880" d="M88 27l12 221q133 -72 254 -72q82 0 133.5 32t51.5 85q0 45 -52 76q-31 18 -145 57q-137 47 -197.5 114.5t-60.5 176.5q0 143 111.5 228t302.5 85q121 0 264 -37l-19 -198q-113 41 -223 41q-78 0 -127 -30t-49 -77q0 -37 35 -59.5t151 -61.5q127 -43 168 -73 q104 -76 105 -226q0 -154 -110.5 -240.5t-307.5 -86.5q-123 0 -297 45z" />
<glyph unicode="t" horiz-adv-x="755" d="M193 389v430h-191v195h195v200l260 86v-286h233v-195h-233v-377q0 -133 24 -174q37 -66 127 -65q29 0 92 14l9 -205q-94 -20 -174 -20q-180 0 -261 94t-81 303z" />
<glyph unicode="u" horiz-adv-x="1189" d="M184 127q-59 104 -59 315v572h262v-488q0 -164 29 -229q41 -94 151 -94q215 0 215 336v475h262v-619q0 -186 13 -395h-246l-8 156q-109 -172 -334 -172q-199 0 -285 143z" />
<glyph unicode="v" horiz-adv-x="1087" d="M397 0l-379 1014h287l170 -488q68 -193 82 -301q18 100 64 234l182 555h264l-377 -1014h-293z" />
<glyph unicode="w" horiz-adv-x="1748" d="M362 0l-344 1014h277l119 -365q86 -266 110 -446q16 150 90 401l121 410h303l144 -457q68 -215 84 -348q14 127 77 352l132 453h254l-314 -1014h-305l-127 393q-82 250 -100 412q-18 -119 -47 -221l-25 -88l-20 -80l-127 -416h-302z" />
<glyph unicode="x" horiz-adv-x="1099" d="M18 0l353 524l-320 490h309l168 -273q35 -57 37 -63q12 27 43 78l156 258h276l-307 -490l346 -524h-315l-184 307l-19 29q-6 12 -24 43l-45 -78l-185 -301h-289z" />
<glyph unicode="y" horiz-adv-x="1093" d="M104 -203q59 -23 107 -22q78 0 123 37.5t84 136.5l-400 1065h291l209 -619l43 -135l49 168l197 586h266l-403 -1084q-74 -193 -148 -264q-100 -94 -268 -94q-72 0 -145 20l-23 7z" />
<glyph unicode="z" horiz-adv-x="987" d="M68 0v201l421 508q43 51 115 116q-23 -2 -47 -2l-84 -2h-381v193h803v-203l-426 -512q-47 -57 -109 -111q94 12 238 13h315v-201h-845z" />
<glyph unicode="{" horiz-adv-x="749" d="M166 -121v373q0 90 -25.5 132t-87.5 54v183q59 16 86 59t27 125v375q0 195 119 256q47 27 95 32t220 7v-181h-39q-94 0 -121 -24q-23 -18 -28.5 -49t-5.5 -121v-314q0 -104 -26 -155t-99 -103q72 -45 98.5 -100t26.5 -158v-311q0 -135 29.5 -165t164.5 -27v-183 q-170 2 -218 8.5t-97 30.5q-119 63 -119 256z" />
<glyph unicode="|" horiz-adv-x="1024" d="M383 -342v1708h260v-1708h-260z" />
<glyph unicode="}" horiz-adv-x="749" d="M150 -233q16 -2 38 -3q94 0 123 25q23 18 29 49t6 123v311q0 104 25.5 156.5t99.5 101.5q-72 45 -98.5 100.5t-26.5 157.5v312q0 135 -29.5 164.5t-166.5 29.5v181q176 -2 223 -7.5t94 -31.5q119 -63 119 -254v-375q0 -90 24.5 -131t85.5 -55v-183q-111 -27 -110 -184 v-375q0 -190 -119 -256q-49 -25 -98.5 -31t-218.5 -8v183z" />
<glyph unicode="~" horiz-adv-x="1366" d="M328 1149l-144 94q4 10 10.5 21.5t6.5 13.5q37 86 62.5 125t66.5 70q70 53 164 53q74 0 213 -53q129 -49 180 -50q47 0 78.5 22.5t66.5 84.5l148 -86q-76 -160 -148 -213q-82 -57 -176 -57q-49 0 -207 55q-131 47 -170 47q-51 0 -81.5 -25.5t-69.5 -101.5z" />
<glyph unicode="&#xa1;" horiz-adv-x="741" d="M180 762v252h271v-252h-271zM164 -350l43 973h219l45 -973h-307z" />
<glyph unicode="&#xa2;" d="M594 0v170q-215 33 -327.5 164t-112.5 352q0 213 113.5 343t326.5 163v170h102v-164q94 -6 195 -33l-21 -213q-88 35 -153 35h-21v-606h11q96 0 192 45l12 -221q-115 -29 -215 -35v-170h-102zM594 403v562q-168 -84 -168 -283q0 -197 168 -279z" />
<glyph unicode="&#xa3;" d="M102 0v207h174v440h-151v146h151q0 193 25 290q35 147 160 226.5t319 79.5q104 0 234 -33l-13 -223q-90 33 -182 32q-215 0 -256 -180q-14 -68 -14 -192h305v-146h-305v-440h457v-207h-904z" />
<glyph unicode="&#xa4;" d="M150 113l-113 110l168 170q-74 104 -74 228q0 121 76 225l-172 170l112 114l172 -169q111 72 232 71q119 0 225 -69l168 165l113 -112l-166 -168q76 -117 76 -230q0 -117 -74 -225l170 -168l-113 -114l-168 170q-113 -76 -235 -76q-113 0 -230 74zM549 391 q94 0 160.5 66.5t66.5 161t-66.5 161t-158.5 66.5q-96 0 -162.5 -66.5t-66.5 -161t66.5 -161t160.5 -66.5z" />
<glyph unicode="&#xa5;" d="M414 0v455h-383v145h354l-66 129h-288v145h209l-258 492h321l225 -510l11 -20q6 -12 18 -43q6 18 16 38q12 18 13 23l233 512h299l-260 -492h223v-145h-303l-65 -129h368v-145h-395v-455h-272z" />
<glyph unicode="&#xa6;" horiz-adv-x="1024" d="M383 657v709h260v-709h-260zM383 313h260v-655h-260v655z" />
<glyph unicode="&#xa7;" d="M106 -127q180 -92 381 -92q106 0 169 43t63 117q0 88 -94 143q-49 29 -250 115q-287 123 -287 354q0 90 38 156.5t132 136.5q-88 72 -120 129t-32 139q0 174 130.5 280.5t341.5 106.5q152 0 354 -55l-25 -221q-184 63 -323 63q-106 0 -166 -43t-60 -119q0 -72 74 -127 q39 -29 281 -129q295 -123 295 -344q0 -127 -84 -221q-29 -35 -101 -76q152 -98 152 -268q0 -184 -150 -305q-123 -98 -323 -98q-180 0 -414 77zM440 418q53 -29 265 -117q94 86 94 178q0 68 -51.5 116t-180.5 103l-106 45q-4 2 -16.5 7.5t-30 14.5t-33.5 15 q-90 -90 -90 -174q0 -61 33.5 -105t115.5 -83z" />
<glyph unicode="&#xa8;" horiz-adv-x="1024" d="M596 1210v230h221v-230h-221zM209 1210v230h223v-230h-223z" />
<glyph unicode="&#xa9;" horiz-adv-x="1615" d="M100 682q0 299 209 507t512 208q285 0 491 -211t206 -502q0 -297 -207 -506t-500 -209t-502 210t-209 503zM240 682q0 -242 167.5 -415t403.5 -173q233 0 400 173t167 415t-164.5 416t-394.5 174q-244 0 -411.5 -171t-167.5 -419zM416 694q0 182 118.5 289t321.5 107 q92 0 213 -37l-16 -152q-86 47 -183 47q-121 0 -190.5 -67.5t-69.5 -182t75 -185.5t194 -71q84 0 186 35l6 -155q-109 -27 -201 -27q-215 0 -334.5 105.5t-119.5 293.5z" />
<glyph unicode="&#xaa;" horiz-adv-x="735" d="M297 758q-102 0 -163.5 54t-61.5 142q0 203 329 203q37 0 84 -4q-2 115 -131 115q-109 0 -209 -76l-4 160q109 45 230 45q172 0 241 -92q43 -59 43 -224v-88q0 -117 7 -225h-166l-2 70q-80 -80 -197 -80zM344 883q66 0 104.5 43t38.5 114h-36q-197 0 -197 -90 q0 -31 24.5 -49t65.5 -18zM78 565v117h584v-117h-584z" />
<glyph unicode="&#xab;" horiz-adv-x="1099" d="M543 512l227 399h248l-211 -399l215 -406h-246zM328 106l-234 406l228 399h247l-211 -399l217 -406h-247z" />
<glyph unicode="&#xac;" horiz-adv-x="1024" d="M68 303v242h886v-545h-260v303h-626z" />
<glyph unicode="&#xad;" horiz-adv-x="499" d="M0 403v220h500v-220h-500z" />
<glyph unicode="&#xae;" horiz-adv-x="1615" d="M100 682q0 299 209 507t512 208q285 0 491 -211t206 -502q0 -297 -207 -506t-500 -209t-502 210t-209 503zM240 682q0 -242 167.5 -415t403.5 -173q233 0 400 173t167 415t-164.5 416t-394.5 174q-244 0 -411.5 -171t-167.5 -419zM532 301v782h279q154 0 221 -45 q84 -57 84 -166q0 -70 -38 -117.5t-105 -64.5q29 -20 42 -39.5t36 -68.5l123 -281h-205l-92 221q-25 59 -49.5 77.5t-77.5 18.5h-31v-317h-187zM717 756h65q139 0 140 100q0 88 -125 88h-80v-188z" />
<glyph unicode="&#xaf;" horiz-adv-x="1024" d="M195 1247v139h636v-139h-636z" />
<glyph unicode="&#xb0;" horiz-adv-x="772" d="M387 881q-133 0 -224 92t-91 223q0 125 93 215t222 90q131 0 222 -90t91 -219t-92 -220t-221 -91zM387.5 1032q65.5 0 111.5 47t46 112.5t-47 112t-113 46.5q-63 0 -110.5 -46.5t-47.5 -109.5q0 -68 47.5 -115t113 -47z" />
<glyph unicode="&#xb1;" d="M455 424v346h-383v178h383v348h188v-348h385v-178h-385v-346h-188zM72 150v178h956v-178h-956z" />
<glyph unicode="&#xb2;" horiz-adv-x="505" d="M43 819v107q252 209 252 293q0 31 -22.5 49t-59.5 18q-66 0 -147 -53l-13 119q100 43 190.5 43t143.5 -45t53 -121q0 -127 -211 -303h228v-107h-414z" />
<glyph unicode="&#xb3;" horiz-adv-x="505" d="M43 834l8 114q74 -33 142 -33q113 0 112 72q0 70 -133 70h-53v108q23 -2 47 -2q137 0 137 70q0 57 -94 57q-72 0 -141 -35l-9 113q98 27 168 27q102 0 159.5 -40t57.5 -112q0 -86 -86 -127q90 -37 91 -139q0 -76 -66 -121t-180 -45q-80 0 -160 23z" />
<glyph unicode="&#xb4;" horiz-adv-x="1024" d="M391 1186l164 278h270l-278 -278h-156z" />
<glyph unicode="&#xb5;" horiz-adv-x="1024" d="M313 104v-458h-260v1337h260v-522q0 -96 13.5 -144.5t52.5 -87.5q57 -57 137 -57q86 0 139.5 69.5t53.5 227.5v514h260v-983h-260v119q-68 -139 -199 -139q-121 -1 -197 124z" />
<glyph unicode="&#xb6;" d="M367 -416v991h-23q-135 0 -219 108t-84 280q0 240 143 340q92 63 265 63h567v-199h-82v-1583h-205v1583h-158v-1583h-204z" />
<glyph unicode="&#xb7;" horiz-adv-x="546" d="M133 379v268h279v-268h-279z" />
<glyph unicode="&#xb8;" horiz-adv-x="1024" d="M369 -152l94 152h104l-73 -113q47 8 77 9q72 0 117 -35t45 -92q0 -82 -70.5 -135.5t-177.5 -53.5q-90 0 -196 45l39 86q76 -39 137 -39q49 0 77.5 19.5t28.5 54.5q0 31 -24.5 49.5t-65.5 18.5q-29 0 -71 -11z" />
<glyph unicode="&#xb9;" horiz-adv-x="505" d="M219 819v416l-92 -72l-74 86l187 135h116v-565h-137z" />
<glyph unicode="&#xba;" horiz-adv-x="935" d="M466.5 748q-151.5 0 -245.5 90t-94 235.5t94 234.5t246 89q156 0 249 -91.5t93 -240.5q0 -141 -95.5 -229t-247 -88zM469 883q66 0 107.5 51t41.5 133q0 88 -40.5 141.5t-110.5 53.5q-66 0 -108 -52.5t-42 -136.5q0 -86 42 -138t110 -52zM147 565v117h641v-117h-641z" />
<glyph unicode="&#xbb;" horiz-adv-x="1099" d="M524 106l215 406l-211 399h248l230 -399l-234 -406h-248zM78 106l213 406l-211 399h250l227 -399l-233 -406h-246z" />
<glyph unicode="&#xbc;" horiz-adv-x="1826" d="M451 -63l776 1493h147l-776 -1493h-147zM319 547v618l-137 -110l-102 121l266 194h164v-823h-191zM1128 162v149l324 514h236v-520h110v-143h-110v-162h-191v162h-369zM1313 305h188l2 324z" />
<glyph unicode="&#xbd;" horiz-adv-x="1826" d="M451 -63l776 1493h147l-776 -1493h-147zM319 547v618l-137 -110l-102 121l266 194h164v-823h-191zM1159 0v150q369 311 369 432q0 49 -34 77.5t-91 28.5q-96 0 -211 -76l-16 166q147 59 272 60q129 0 206 -64.5t77 -173.5q0 -117 -138 -276q-78 -92 -176 -179l338 2v-147 h-596z" />
<glyph unicode="&#xbe;" horiz-adv-x="1826" d="M453 -63l776 1493h147l-776 -1493h-147zM61 563l13 162q106 -47 202 -47q80 0 125 29.5t45 80.5q0 109 -202 109q-39 0 -72 -2v152q31 -2 64 -3q207 0 206 107q0 88 -143 88q-102 0 -201 -47l-12 154q131 39 240 38q150 0 231.5 -57t81.5 -162q0 -131 -131 -188 q139 -53 139 -203q0 -113 -95 -177.5t-261 -64.5q-117 0 -230 31zM1128 162v149l324 514h236v-520h110v-143h-110v-162h-191v162h-369zM1313 305h188l2 324z" />
<glyph unicode="&#xbf;" horiz-adv-x="1040" d="M371 762v252h270v-252h-270zM55 -23q0 86 37 154t156 201q88 94 111.5 145t27.5 148h238q-2 -141 -30 -209t-126 -174q-125 -133 -125 -234q0 -76 60.5 -121t162.5 -45q129 0 299 76l21 -225q-199 -66 -393 -66q-201 0 -320 95t-119 255z" />
<glyph unicode="&#xc0;" horiz-adv-x="1425" d="M635 1505l-260 267h266l164 -267h-170zM18 0l533 1366h307l547 -1366h-301l-119 311h-565l-117 -311h-285zM504 535h397l-176 483q-14 39 -27 90l-10 -41q-8 -35 -20 -72z" />
<glyph unicode="&#xc1;" horiz-adv-x="1425" d="M621 1505l163 267h267l-260 -267h-170zM18 0l533 1366h307l547 -1366h-301l-119 311h-565l-117 -311h-285zM504 535h397l-176 483q-14 39 -27 90l-10 -41q-8 -35 -20 -72z" />
<glyph unicode="&#xc2;" horiz-adv-x="1425" d="M381 1505l215 267h229l215 -267h-204l-125 156l-125 -156h-205zM18 0l533 1366h307l547 -1366h-301l-119 311h-565l-117 -311h-285zM504 535h397l-176 483q-14 39 -27 90l-10 -41q-8 -35 -20 -72z" />
<glyph unicode="&#xc3;" horiz-adv-x="1425" d="M371 1520q20 94 53 141q70 94 176 94q61 0 172 -49q70 -33 102 -33q35 0 55.5 19.5t35.5 64.5h114q-10 -109 -67.5 -170t-149.5 -61q-35 0 -57.5 7t-112.5 44q-74 31 -106 31q-74 0 -101 -88h-114zM18 0l533 1366h307l547 -1366h-301l-119 311h-565l-117 -311h-285z M504 535h397l-176 483q-14 39 -27 90l-10 -41q-8 -35 -20 -72z" />
<glyph unicode="&#xc4;" horiz-adv-x="1425" d="M801 1518v235h235v-235h-235zM375 1518v235h235v-235h-235zM18 0l533 1366h307l547 -1366h-301l-119 311h-565l-117 -311h-285zM504 535h397l-176 483q-14 39 -27 90l-10 -41q-8 -35 -20 -72z" />
<glyph unicode="&#xc5;" horiz-adv-x="1425" d="M707 1440q-88 0 -149.5 62.5t-61.5 150.5q0 86 62.5 147.5t150.5 61.5q84 0 145 -62.5t61 -148.5q0 -88 -61 -149.5t-147 -61.5zM707 1563q35 0 60.5 25.5t25.5 62.5q0 35 -26 61.5t-60 26.5q-37 0 -63 -25.5t-26 -62.5q0 -35 26 -61.5t63 -26.5zM18 0l533 1366h307 l547 -1366h-301l-119 311h-565l-117 -311h-285zM504 535h397l-176 483q-14 39 -27 90l-10 -41q-8 -35 -20 -72z" />
<glyph unicode="&#xc6;" horiz-adv-x="1843" d="M-10 0l747 1366h973v-223h-532l30 -336h461v-223h-442l35 -361h462v-223h-720l-25 311h-526l-168 -311h-295zM569 535h389l-47 575v23l-2 18v23q-2 -6 -8 -15l-2 -6l-10 -18l-12 -25z" />
<glyph unicode="&#xc7;" horiz-adv-x="1206" d="M621 -162l98 158q-295 31 -457 211t-162 479q0 319 193 504q199 186 524 186q158 0 338 -59l-22 -234q-135 74 -289 74q-207 0 -329 -124t-122 -337q0 -211 128 -344t331 -133q145 0 299 57l10 -241q-150 -43 -344 -45l-72 -113q43 10 82 10q78 0 123 -36.5t45 -100.5 q0 -84 -70.5 -138t-183.5 -54q-94 0 -200 45l39 94q72 -39 137 -39q106 0 106 78q0 68 -96 67q-31 0 -65 -10z" />
<glyph unicode="&#xc8;" horiz-adv-x="1099" d="M510 1505l-260 267h266l164 -267h-170zM164 0v1366h809v-223h-533v-332h488v-223h-488v-365h541v-223h-817z" />
<glyph unicode="&#xc9;" horiz-adv-x="1099" d="M473 1505l164 267h266l-260 -267h-170zM164 0v1366h809v-223h-533v-332h488v-223h-488v-365h541v-223h-817z" />
<glyph unicode="&#xca;" horiz-adv-x="1099" d="M246 1505l215 267h229l215 -267h-205l-125 156l-124 -156h-205zM164 0v1366h809v-223h-533v-332h488v-223h-488v-365h541v-223h-817z" />
<glyph unicode="&#xcb;" horiz-adv-x="1099" d="M670 1518v235h235v-235h-235zM244 1518v235h235v-235h-235zM164 0v1366h809v-223h-533v-332h488v-223h-488v-365h541v-223h-817z" />
<glyph unicode="&#xcc;" horiz-adv-x="630" d="M244 1505l-260 267h266l164 -267h-170zM176 0v1366h277v-1366h-277z" />
<glyph unicode="&#xcd;" horiz-adv-x="630" d="M231 1505l164 267h267l-261 -267h-170zM178 0v1366h277v-1366h-277z" />
<glyph unicode="&#xce;" horiz-adv-x="630" d="M12 1505l195 267h229l195 -267h-197l-112 164l-111 -164h-199zM176 0v1366h277v-1366h-277z" />
<glyph unicode="&#xcf;" horiz-adv-x="630" d="M371 1518v235h215v-235h-215zM47 1518v235h215v-235h-215zM178 0v1366h277v-1366h-277z" />
<glyph unicode="&#xd0;" horiz-adv-x="1427" d="M164 0v608h-137v191h137v567h311q420 0 606 -131q246 -174 246 -549q0 -387 -246 -561q-172 -125 -522 -125h-395zM440 209h54q147 0 226 20.5t146 73.5q166 135 166 375q0 279 -201 407q-59 37 -139 51.5t-252 16.5v-354h287v-191h-287v-399z" />
<glyph unicode="&#xd1;" horiz-adv-x="1452" d="M406 1520q20 94 53 141q70 94 176 94q61 0 172 -49q70 -33 102 -33q35 0 55.5 19.5t34.5 64.5h115q-10 -109 -67.5 -170t-149.5 -61q-35 0 -57.5 7t-112.5 44q-74 31 -106 31q-74 0 -101 -88h-114zM164 0v1366h325l457 -827q41 -74 82 -187q0 -4 8 -23.5l13 -31.5 q-2 39 -9 74q-14 121 -14 262v733h262v-1366h-334l-446 825q-61 115 -113 242q31 -221 31 -352v-715h-262z" />
<glyph unicode="&#xd2;" horiz-adv-x="1533" d="M711 1505l-260 267h266l164 -267h-170zM100 680q0 326 168 516q84 94 216 147.5t282 53.5q311 0 490.5 -192.5t179.5 -528.5q0 -143 -43 -274.5t-121 -221.5q-176 -211 -506 -211q-307 0 -486.5 191.5t-179.5 519.5zM393 682q0 -223 103.5 -362.5t271.5 -139.5 q180 0 281 154q94 145 94 342q0 227 -104.5 368.5t-272.5 141.5q-166 0 -269.5 -140.5t-103.5 -363.5z" />
<glyph unicode="&#xd3;" horiz-adv-x="1533" d="M676 1505l164 267h266l-260 -267h-170zM100 680q0 326 168 516q84 94 216 147.5t282 53.5q311 0 490.5 -192.5t179.5 -528.5q0 -143 -43 -274.5t-121 -221.5q-176 -211 -506 -211q-307 0 -486.5 191.5t-179.5 519.5zM393 682q0 -223 103.5 -362.5t271.5 -139.5 q180 0 281 154q94 145 94 342q0 227 -104.5 368.5t-272.5 141.5q-166 0 -269.5 -140.5t-103.5 -363.5z" />
<glyph unicode="&#xd4;" horiz-adv-x="1533" d="M444 1505l215 267h230l215 -267h-205l-125 156l-125 -156h-205zM100 680q0 326 168 516q84 94 216 147.5t282 53.5q311 0 490.5 -192.5t179.5 -528.5q0 -143 -43 -274.5t-121 -221.5q-176 -211 -506 -211q-307 0 -486.5 191.5t-179.5 519.5zM393 682q0 -223 103.5 -362.5 t271.5 -139.5q180 0 281 154q94 145 94 342q0 227 -104.5 368.5t-272.5 141.5q-166 0 -269.5 -140.5t-103.5 -363.5z" />
<glyph unicode="&#xd5;" horiz-adv-x="1533" d="M434 1520q20 94 53 141q70 94 177 94q61 0 172 -49q70 -33 102 -33q35 0 55.5 19.5t34.5 64.5h115q-10 -109 -67.5 -170t-149.5 -61q-35 0 -57.5 7t-112.5 44q-74 31 -107 31q-74 0 -100 -88h-115zM100 680q0 326 168 516q84 94 216 147.5t282 53.5q311 0 490.5 -192.5 t179.5 -528.5q0 -143 -43 -274.5t-121 -221.5q-176 -211 -506 -211q-307 0 -486.5 191.5t-179.5 519.5zM393 682q0 -223 103.5 -362.5t271.5 -139.5q180 0 281 154q94 145 94 342q0 227 -104.5 368.5t-272.5 141.5q-166 0 -269.5 -140.5t-103.5 -363.5z" />
<glyph unicode="&#xd6;" horiz-adv-x="1533" d="M862 1518v235h236v-235h-236zM436 1518v235h236v-235h-236zM100 680q0 326 168 516q84 94 216 147.5t282 53.5q311 0 490.5 -192.5t179.5 -528.5q0 -143 -43 -274.5t-121 -221.5q-176 -211 -506 -211q-307 0 -486.5 191.5t-179.5 519.5zM393 682q0 -223 103.5 -362.5 t271.5 -139.5q180 0 281 154q94 145 94 342q0 227 -104.5 368.5t-272.5 141.5q-166 0 -269.5 -140.5t-103.5 -363.5z" />
<glyph unicode="&#xd7;" d="M254 291l-125 125l295 295l-295 295l125 124l295 -294l295 294l125 -124l-295 -295l295 -295l-125 -125l-295 293z" />
<glyph unicode="&#xd8;" horiz-adv-x="1533" d="M109 61l129 148q-137 188 -138 475q0 154 44 289t124 223q84 94 214 147.5t278 53.5q123 0 236.5 -34t183.5 -91l125 139l122 -108l-131 -148q139 -180 140 -475q0 -324 -180.5 -517.5t-483.5 -193.5q-260 0 -418 123l-118 -135zM434 424l561 661q-74 100 -231 101 q-164 0 -267.5 -139.5t-103.5 -360.5q0 -108 41 -262zM532 276q90 -96 240 -96q164 0 267.5 140.5t103.5 365.5q0 123 -49 252z" />
<glyph unicode="&#xd9;" horiz-adv-x="1443" d="M666 1505l-260 267h266l164 -267h-170zM281 131q-117 131 -117 410v825h276v-801q0 -113 14.5 -172t53.5 -108q78 -96 221 -97q168 0 242 138q25 47 33 96t8 153v791h268v-829q0 -291 -138 -429.5t-429 -138.5t-432 162z" />
<glyph unicode="&#xda;" horiz-adv-x="1443" d="M623 1505l163 267h267l-260 -267h-170zM281 131q-117 131 -117 410v825h276v-801q0 -113 14.5 -172t53.5 -108q78 -96 221 -97q168 0 242 138q25 47 33 96t8 153v791h268v-829q0 -291 -138 -429.5t-429 -138.5t-432 162z" />
<glyph unicode="&#xdb;" horiz-adv-x="1443" d="M399 1505l215 267h230l215 -267h-205l-125 156l-125 -156h-205zM281 131q-117 131 -117 410v825h276v-801q0 -113 14.5 -172t53.5 -108q78 -96 221 -97q168 0 242 138q25 47 33 96t8 153v791h268v-829q0 -291 -138 -429.5t-429 -138.5t-432 162z" />
<glyph unicode="&#xdc;" horiz-adv-x="1443" d="M823 1518v235h236v-235h-236zM397 1518v235h236v-235h-236zM281 131q-117 131 -117 410v825h276v-801q0 -113 14.5 -172t53.5 -108q78 -96 221 -97q168 0 242 138q25 47 33 96t8 153v791h268v-829q0 -291 -138 -429.5t-429 -138.5t-432 162z" />
<glyph unicode="&#xdd;" horiz-adv-x="1306" d="M555 1505l164 267h266l-260 -267h-170zM518 0v547l-500 819h322l293 -508q18 -35 31 -65q6 18 30 61l299 512h295l-493 -813v-553h-277z" />
<glyph unicode="&#xde;" horiz-adv-x="1122" d="M164 0v1366h276v-192h99q254 0 379 -89q166 -115 165 -331q0 -102 -43 -192.5t-120 -147.5q-121 -90 -355 -90q-49 0 -125 2v-326h-276zM436 539q137 0 182 8q82 12 129.5 66.5t47.5 136.5q0 164 -154 202q-47 12 -205 13v-426z" />
<glyph unicode="&#xdf;" horiz-adv-x="1196" d="M131 0v952q0 266 117 391q135 145 377 146q193 0 310.5 -103.5t117.5 -273.5q0 -127 -67.5 -213t-188.5 -113v-6q106 -20 174 -63q147 -98 147 -309q0 -193 -123 -308.5t-325 -115.5q-63 0 -168 20l4 207q68 -8 112 -8q106 0 170 64.5t64 172.5q0 154 -121 213 q-51 27 -182 27v194h37q94 0 148 57.5t54 155.5q0 96 -48 151.5t-130 55.5q-127 0 -182 -125q-35 -84 -35 -272v-897h-262z" />
<glyph unicode="&#xe0;" horiz-adv-x="1101" d="M504 1186l-279 278h271l163 -278h-155zM76 301q0 328 508 328q51 0 147 -8v10q0 215 -225 215q-170 0 -313 -111l-9 226q166 72 351 71q266 0 372 -147q37 -53 50.5 -129t13.5 -240v-147q0 -160 10 -369h-233l-5 150q-100 -166 -323 -166q-156 0 -250 86t-94 231z M336 293q0 -59 44 -95t113.5 -36t127 38t88.5 103q27 59 26 158q-49 4 -71 4q-328 0 -328 -172z" />
<glyph unicode="&#xe1;" horiz-adv-x="1101" d="M465 1186l164 278h270l-278 -278h-156zM76 301q0 328 508 328q51 0 147 -8v10q0 215 -225 215q-170 0 -313 -111l-9 226q166 72 351 71q266 0 372 -147q37 -53 50.5 -129t13.5 -240v-147q0 -160 10 -369h-233l-5 150q-100 -166 -323 -166q-156 0 -250 86t-94 231z M336 293q0 -59 44 -95t113.5 -36t127 38t88.5 103q27 59 26 158q-49 4 -71 4q-328 0 -328 -172z" />
<glyph unicode="&#xe2;" horiz-adv-x="1101" d="M252 1186l215 278h203l215 -278h-185l-131 170l-133 -170h-184zM76 301q0 328 508 328q51 0 147 -8v10q0 215 -225 215q-170 0 -313 -111l-9 226q166 72 351 71q266 0 372 -147q37 -53 50.5 -129t13.5 -240v-147q0 -160 10 -369h-233l-5 150q-100 -166 -323 -166 q-156 0 -250 86t-94 231zM336 293q0 -59 44 -95t113.5 -36t127 38t88.5 103q27 59 26 158q-49 4 -71 4q-328 0 -328 -172z" />
<glyph unicode="&#xe3;" horiz-adv-x="1101" d="M254 1210q12 86 37 127q55 102 160 103q47 0 145 -41q92 -37 123 -37q27 0 50.5 24.5t29.5 59.5h100q-6 -96 -65.5 -161.5t-141.5 -65.5q-49 0 -129 36q-86 39 -129 39q-61 0 -82 -84h-98zM76 301q0 328 508 328q51 0 147 -8v10q0 215 -225 215q-170 0 -313 -111l-9 226 q166 72 351 71q266 0 372 -147q37 -53 50.5 -129t13.5 -240v-147q0 -160 10 -369h-233l-5 150q-100 -166 -323 -166q-156 0 -250 86t-94 231zM336 293q0 -59 44 -95t113.5 -36t127 38t88.5 103q27 59 26 158q-49 4 -71 4q-328 0 -328 -172z" />
<glyph unicode="&#xe4;" horiz-adv-x="1101" d="M651 1210v230h221v-230h-221zM264 1210v230h223v-230h-223zM76 301q0 328 508 328q51 0 147 -8v10q0 215 -225 215q-170 0 -313 -111l-9 226q166 72 351 71q266 0 372 -147q37 -53 50.5 -129t13.5 -240v-147q0 -160 10 -369h-233l-5 150q-100 -166 -323 -166 q-156 0 -250 86t-94 231zM336 293q0 -59 44 -95t113.5 -36t127 38t88.5 103q27 59 26 158q-49 4 -71 4q-328 0 -328 -172z" />
<glyph unicode="&#xe5;" horiz-adv-x="1101" d="M565 1137q-84 0 -143.5 60t-59.5 144t60.5 142.5t146.5 58.5q80 0 139.5 -60.5t59.5 -142.5t-60.5 -142t-142.5 -60zM565 1255q35 0 59.5 24t24.5 58.5t-24.5 59t-57.5 24.5q-35 0 -59.5 -23.5t-24.5 -58t23.5 -59.5t58.5 -25zM76 301q0 328 508 328q51 0 147 -8v10 q0 215 -225 215q-170 0 -313 -111l-9 226q166 72 351 71q266 0 372 -147q37 -53 50.5 -129t13.5 -240v-147q0 -160 10 -369h-233l-5 150q-100 -166 -323 -166q-156 0 -250 86t-94 231zM336 293q0 -59 44 -95t113.5 -36t127 38t88.5 103q27 59 26 158q-49 4 -71 4 q-328 0 -328 -172z" />
<glyph unicode="&#xe6;" horiz-adv-x="1753" d="M74 301q0 317 501 317q59 0 170 -6q-6 225 -247 226q-82 0 -146.5 -19.5t-163.5 -75.5l-8 205q178 82 363 82q270 0 342 -164q106 164 339.5 164t342 -146.5t110.5 -461.5h-678q10 -109 66 -164q80 -80 223 -80q168 0 297 88l8 -215q-164 -68 -342 -67q-150 0 -256 50 t-147 140q-39 -76 -103 -117q-115 -74 -280 -73q-176 0 -283.5 87t-107.5 230zM997 604h414q-2 92 -37 150q-53 96 -162 96q-115 0 -174 -109q-27 -49 -41 -137zM346 295q0 -59 46 -99t114 -40q59 0 117.5 33.5t87.5 84.5q39 70 39 179q-29 0 -56.5 1t-42 2t-24.5 1 q-131 0 -206 -43t-75 -119z" />
<glyph unicode="&#xe7;" horiz-adv-x="882" d="M381 -152l96 154q-401 92 -401 510q0 229 131 360q150 150 385 150q90 0 219 -33l-20 -211q-88 33 -156 33q-129 0 -208 -83t-79 -220q0 -133 80 -215t211 -82q88 0 180 41l15 -221q-133 -39 -234 -39h-27l-69 -105q47 8 80 9q72 0 116.5 -35t44.5 -92 q0 -82 -70.5 -135.5t-176.5 -53.5q-92 0 -197 45l37 86q76 -39 139 -39q49 0 78 19.5t29 54.5q0 31 -26 49.5t-66 18.5q-29 0 -70 -11z" />
<glyph unicode="&#xe8;" horiz-adv-x="1095" d="M520 1186l-278 278h270l164 -278h-156zM74 510q0 244 133 387t356 143q213 0 335 -134t122 -367q0 -51 -6 -115h-682q10 -119 90 -187.5t209 -68.5q143 0 317 104l4 -227q-160 -72 -352 -72q-250 0 -388 141.5t-138 395.5zM328 606h442q-2 119 -58.5 184.5t-154.5 65.5 q-94 0 -155.5 -66.5t-73.5 -183.5z" />
<glyph unicode="&#xe9;" horiz-adv-x="1095" d="M487 1186l164 278h271l-279 -278h-156zM74 510q0 244 133 387t356 143q213 0 335 -134t122 -367q0 -51 -6 -115h-682q10 -119 90 -187.5t209 -68.5q143 0 317 104l4 -227q-160 -72 -352 -72q-250 0 -388 141.5t-138 395.5zM328 606h442q-2 119 -58.5 184.5t-154.5 65.5 q-94 0 -155.5 -66.5t-73.5 -183.5z" />
<glyph unicode="&#xea;" horiz-adv-x="1095" d="M264 1186l215 278h203l215 -278h-184l-131 170l-133 -170h-185zM74 510q0 244 133 387t356 143q213 0 335 -134t122 -367q0 -51 -6 -115h-682q10 -119 90 -187.5t209 -68.5q143 0 317 104l4 -227q-160 -72 -352 -72q-250 0 -388 141.5t-138 395.5zM328 606h442 q-2 119 -58.5 184.5t-154.5 65.5q-94 0 -155.5 -66.5t-73.5 -183.5z" />
<glyph unicode="&#xeb;" horiz-adv-x="1095" d="M664 1210v230h221v-230h-221zM276 1210v230h224v-230h-224zM74 510q0 244 133 387t356 143q213 0 335 -134t122 -367q0 -51 -6 -115h-682q10 -119 90 -187.5t209 -68.5q143 0 317 104l4 -227q-160 -72 -352 -72q-250 0 -388 141.5t-138 395.5zM328 606h442 q-2 119 -58.5 184.5t-154.5 65.5q-94 0 -155.5 -66.5t-73.5 -183.5z" />
<glyph unicode="&#xec;" horiz-adv-x="528" d="M201 1186l-258 278h264l149 -278h-155zM133 0v1014h262v-1014h-262z" />
<glyph unicode="&#xed;" horiz-adv-x="528" d="M186 1186l150 278h264l-258 -278h-156zM133 0v1014h262v-1014h-262z" />
<glyph unicode="&#xee;" horiz-adv-x="528" d="M-25 1186l195 278h203l194 -278h-178l-117 170l-118 -170h-179zM133 0v1014h262v-1014h-262z" />
<glyph unicode="&#xef;" horiz-adv-x="528" d="M319 1210v230h205v-230h-205zM6 1210v230h205v-230h-205zM135 0v1014h262v-1014h-262z" />
<glyph unicode="&#xf0;" horiz-adv-x="1202" d="M76 512q0 227 138 375.5t349 148.5q78 0 127 -16t113 -68q-53 164 -195 287l-215 -131l-82 113l158 94q-61 25 -211 49l45 127q150 -14 332 -76l229 135l86 -108l-184 -109q164 -137 263 -355t99 -443q0 -274 -141 -416q-145 -145 -387 -146q-238 0 -381 147.5 t-143 391.5zM410 274q61 -104 194 -104t197 113q55 98 55 221q0 154 -70.5 249t-183.5 95q-111 0 -181.5 -94.5t-70.5 -239.5q1 -138 60 -240z" />
<glyph unicode="&#xf1;" horiz-adv-x="1198" d="M295 1210q12 86 37 127q55 102 160 103q47 0 145 -41q92 -37 123 -37q27 0 50.5 24.5t29.5 59.5h100q-6 -96 -65.5 -161.5t-141.5 -65.5q-49 0 -129 36q-86 39 -129 39q-61 0 -82 -84h-98zM143 0v645q0 178 -10 369h246l8 -162q51 72 90 102q98 76 254 76q190 0 281 -131 q63 -96 63 -328v-571h-262v510q0 160 -42 230.5t-138 70.5q-131 0 -193 -123q-35 -68 -34 -207v-481h-263z" />
<glyph unicode="&#xf2;" horiz-adv-x="1202" d="M555 1186l-279 278h271l164 -278h-156zM76 510q0 238 145.5 384t380.5 146q238 0 382 -148.5t144 -395.5q0 -233 -146 -378t-381.5 -145t-380 147.5t-144.5 389.5zM348 510q0 -154 69.5 -248t184.5 -94q113 0 183.5 93t70.5 239q0 156 -69.5 251t-184.5 95 q-113 0 -183.5 -94.5t-70.5 -241.5z" />
<glyph unicode="&#xf3;" horiz-adv-x="1202" d="M514 1186l164 278h270l-278 -278h-156zM76 510q0 238 145.5 384t380.5 146q238 0 382 -148.5t144 -395.5q0 -233 -146 -378t-381.5 -145t-380 147.5t-144.5 389.5zM348 510q0 -154 69.5 -248t184.5 -94q113 0 183.5 93t70.5 239q0 156 -69.5 251t-184.5 95 q-113 0 -183.5 -94.5t-70.5 -241.5z" />
<glyph unicode="&#xf4;" horiz-adv-x="1202" d="M299 1186l215 278h203l215 -278h-184l-132 170l-133 -170h-184zM76 510q0 238 145.5 384t380.5 146q238 0 382 -148.5t144 -395.5q0 -233 -146 -378t-381.5 -145t-380 147.5t-144.5 389.5zM348 510q0 -154 69.5 -248t184.5 -94q113 0 183.5 93t70.5 239q0 156 -69.5 251 t-184.5 95q-113 0 -183.5 -94.5t-70.5 -241.5z" />
<glyph unicode="&#xf5;" horiz-adv-x="1202" d="M301 1210q12 86 37 127q55 102 160 103q47 0 145 -41q92 -37 123 -37q27 0 50.5 24.5t29.5 59.5h100q-6 -96 -65.5 -161.5t-141.5 -65.5q-49 0 -129 36q-86 39 -129 39q-61 0 -82 -84h-98zM76 510q0 238 145.5 384t380.5 146q238 0 382 -148.5t144 -395.5 q0 -233 -146 -378t-381.5 -145t-380 147.5t-144.5 389.5zM348 510q0 -154 69.5 -248t184.5 -94q113 0 183.5 93t70.5 239q0 156 -69.5 251t-184.5 95q-113 0 -183.5 -94.5t-70.5 -241.5z" />
<glyph unicode="&#xf6;" horiz-adv-x="1202" d="M692 1210v230h221v-230h-221zM305 1210v230h223v-230h-223zM76 510q0 238 145.5 384t380.5 146q238 0 382 -148.5t144 -395.5q0 -233 -146 -378t-381.5 -145t-380 147.5t-144.5 389.5zM348 510q0 -154 69.5 -248t184.5 -94q113 0 183.5 93t70.5 239q0 156 -69.5 251 t-184.5 95q-113 0 -183.5 -94.5t-70.5 -241.5z" />
<glyph unicode="&#xf7;" d="M434 952v219h230v-219h-230zM72 621v178h956v-178h-956zM434 250v219h230v-219h-230z" />
<glyph unicode="&#xf8;" horiz-adv-x="1202" d="M72 43l112 121q-109 143 -108 346q0 240 145.5 385t382.5 145q168 0 309 -90l107 115l113 -96l-113 -119q109 -141 108 -348q0 -238 -144 -383.5t-382 -145.5q-180 0 -309 90l-109 -116zM373 354l379 437q-70 55 -148 55q-113 0 -184.5 -93.5t-71.5 -242.5q0 -72 25 -156 zM453 225q72 -57 147 -57q117 0 186.5 93t69.5 249q0 68 -25 149z" />
<glyph unicode="&#xf9;" horiz-adv-x="1189" d="M535 1186l-279 278h270l164 -278h-155zM184 127q-59 104 -59 315v572h262v-488q0 -164 29 -229q41 -94 151 -94q215 0 215 336v475h262v-619q0 -186 13 -395h-246l-8 156q-109 -172 -334 -172q-199 0 -285 143z" />
<glyph unicode="&#xfa;" horiz-adv-x="1189" d="M502 1186l164 278h270l-279 -278h-155zM184 127q-59 104 -59 315v572h262v-488q0 -164 29 -229q41 -94 151 -94q215 0 215 336v475h262v-619q0 -186 13 -395h-246l-8 156q-109 -172 -334 -172q-199 0 -285 143z" />
<glyph unicode="&#xfb;" horiz-adv-x="1189" d="M274 1186l215 278h203l215 -278h-184l-131 170l-133 -170h-185zM184 127q-59 104 -59 315v572h262v-488q0 -164 29 -229q41 -94 151 -94q215 0 215 336v475h262v-619q0 -186 13 -395h-246l-8 156q-109 -172 -334 -172q-199 0 -285 143z" />
<glyph unicode="&#xfc;" horiz-adv-x="1189" d="M674 1210v230h221v-230h-221zM287 1210v230h223v-230h-223zM184 127q-59 104 -59 315v572h262v-488q0 -164 29 -229q41 -94 151 -94q215 0 215 336v475h262v-619q0 -186 13 -395h-246l-8 156q-109 -172 -334 -172q-199 0 -285 143z" />
<glyph unicode="&#xfd;" horiz-adv-x="1093" d="M459 1186l164 278h270l-279 -278h-155zM104 -203q59 -23 107 -22q78 0 123 37.5t84 136.5l-400 1065h291l209 -619l43 -135l49 168l197 586h266l-403 -1084q-74 -193 -148 -264q-100 -94 -268 -94q-72 0 -145 20l-23 7z" />
<glyph unicode="&#xfe;" horiz-adv-x="1208" d="M408 -12v-404h-265v1891h265v-433q0 -90 -17 -188q125 178 328 178q190 0 303 -139t113 -377q0 -248 -113 -390t-309 -142q-215 0 -307 159q2 -61 2 -155zM408 500q0 -143 61 -226.5t168 -83.5q100 0 162.5 87.5t62.5 224.5q0 150 -57 231.5t-162 81.5q-109 0 -172 -85 t-63 -230z" />
<glyph unicode="&#xff;" horiz-adv-x="1093" d="M629 1210v230h221v-230h-221zM242 1210v230h223v-230h-223zM104 -203q59 -23 107 -22q78 0 123 37.5t84 136.5l-400 1065h291l209 -619l43 -135l49 168l197 586h266l-403 -1084q-74 -193 -148 -264q-100 -94 -268 -94q-72 0 -145 20l-23 7z" />
<glyph unicode="&#x131;" horiz-adv-x="528" d="M133 0v1014h262v-1014h-262z" />
<glyph unicode="&#x141;" horiz-adv-x="1007" d="M164 0v479l-137 -88v219l137 88v668h276v-551l285 182v-219l-285 -182v-373h533v-223h-809z" />
<glyph unicode="&#x142;" horiz-adv-x="567" d="M154 0v608l-138 -88v205l138 88v662h262v-553l135 86v-205l-135 -86v-717h-262z" />
<glyph unicode="&#x152;" horiz-adv-x="1878" d="M301 166q-201 178 -201 522q0 207 79 360.5t227 235.5q164 88 448 88q82 0 172 -2q152 -4 342 -4h381v-223h-510v-330h467v-223h-467v-367h520v-223h-610l-285 -2q-201 -2 -331 38t-232 130zM610 270q104 -57 273 -57q45 0 80 4v928q-66 8 -136 8q-195 0 -318.5 -131 t-123.5 -336q0 -139 59.5 -249t165.5 -167z" />
<glyph unicode="&#x153;" horiz-adv-x="1871" d="M76 508q0 242 145.5 387t386.5 145q129 0 213 -38.5t152 -133.5q139 172 360 172q295 0 402 -237q61 -133 63 -379h-680q8 -121 83 -188.5t202 -67.5q152 0 299 100l8 -219q-176 -76 -338 -76q-270 0 -387 170q-70 -90 -159 -130t-218 -40q-244 0 -388 145.5t-144 389.5z M1118 606h410q-8 96 -33 144q-53 104 -166 104q-92 0 -148.5 -66.5t-62.5 -181.5zM348 514q0 -156 68.5 -251t183.5 -95t185.5 92t70.5 242q0 154 -69.5 249t-182 95t-184.5 -93.5t-72 -238.5z" />
<glyph unicode="&#x160;" horiz-adv-x="1105" d="M455 1505l-215 267h204l125 -156l125 156h205l-215 -267h-229zM143 33l25 246q160 -90 307 -91q111 0 175.5 51.5t64.5 139.5t-66 131q-41 29 -157 76q-174 68 -254 135q-121 100 -121 274q0 190 127 296t356 106q172 0 324 -54l-23 -225q-156 68 -285 68 q-100 0 -158.5 -44t-58.5 -120q0 -88 84 -135q37 -20 187 -80q180 -72 259 -167t79 -243q0 -199 -137.5 -313.5t-374.5 -114.5q-177 1 -353 64z" />
<glyph unicode="&#x161;" horiz-adv-x="880" d="M362 1186l-215 278h185l133 -170l131 170h184l-215 -278h-203zM88 27l12 221q133 -72 254 -72q82 0 133.5 32t51.5 85q0 45 -52 76q-31 18 -145 57q-137 47 -197.5 114.5t-60.5 176.5q0 143 111.5 228t302.5 85q121 0 264 -37l-19 -198q-113 41 -223 41q-78 0 -127 -30 t-49 -77q0 -37 35 -59.5t151 -61.5q127 -43 168 -73q104 -76 105 -226q0 -154 -110.5 -240.5t-307.5 -86.5q-123 0 -297 45z" />
<glyph unicode="&#x178;" horiz-adv-x="1306" d="M748 1518v235h235v-235h-235zM322 1518v235h235v-235h-235zM518 0v547l-500 819h322l293 -508q18 -35 31 -65q6 18 30 61l299 512h295l-493 -813v-553h-277z" />
<glyph unicode="&#x17d;" horiz-adv-x="1093" d="M444 1505l-215 267h205l125 -156l125 156h205l-215 -267h-230zM68 0v236l565 806l54 74t34 31q-20 -4 -94 -4h-541v223h913v-256l-571 -819q-33 -45 -63 -74q43 6 96 6h561v-223h-954z" />
<glyph unicode="&#x17e;" horiz-adv-x="987" d="M401 1186l-215 278h185l133 -170l131 170h184l-215 -278h-203zM68 0v201l421 508q43 51 115 116q-23 -2 -47 -2l-84 -2h-381v193h803v-203l-426 -512q-47 -57 -109 -111q94 12 238 13h315v-201h-845z" />
<glyph unicode="&#x192;" d="M43 -74q59 -8 88 -8q98 0 131 78q14 31 37 145l133 658h-219l25 145h223l45 225q37 190 125 267q102 90 270 90q76 0 166 -21l-35 -205q-61 10 -96 11q-98 0 -133 -64q-25 -47 -43 -155l-27 -148h238l-25 -145h-241l-130 -658q-27 -133 -52 -202.5t-68 -116.5 q-100 -109 -285 -109q-80 0 -166 21z" />
<glyph unicode="&#x2c6;" horiz-adv-x="1024" d="M201 1186l215 278h202l216 -278h-185l-131 170l-133 -170h-184z" />
<glyph unicode="&#x2c7;" horiz-adv-x="1024" d="M416 1186l-215 278h184l133 -170l131 170h185l-216 -278h-202z" />
<glyph unicode="&#x2d8;" horiz-adv-x="1024" d="M512 1176q-125 0 -203 76.5t-88 211.5h133q12 -59 35 -88q20 -27 55 -45t68 -18q76 0 125 63q23 31 33 88h133q-10 -96 -47 -155q-82 -133 -244 -133z" />
<glyph unicode="&#x2d9;" horiz-adv-x="1024" d="M401 1210v230h222v-230h-222z" />
<glyph unicode="&#x2da;" horiz-adv-x="1024" d="M512 1137q-84 0 -143.5 60t-59.5 144t60.5 142.5t146.5 58.5q80 0 139.5 -60.5t59.5 -142.5t-60.5 -142t-142.5 -60zM512 1255q35 0 59.5 24t24.5 58.5t-24.5 59t-57.5 24.5q-35 0 -59.5 -23.5t-24.5 -58t23.5 -59.5t58.5 -25z" />
<glyph unicode="&#x2db;" horiz-adv-x="1024" d="M586 -213q0 113 166 213h131q-72 -55 -101.5 -95t-29.5 -85q0 -37 24.5 -59.5t63.5 -22.5q35 0 75 20v-96q-61 -35 -141 -35q-82 0 -135 45t-53 115z" />
<glyph unicode="&#x2dc;" horiz-adv-x="1024" d="M190 1210q12 86 37 127q55 102 160 103q47 0 145 -41q92 -37 123 -37q27 0 50.5 24.5t29.5 59.5h101q-6 -96 -65.5 -161.5t-141.5 -65.5q-49 0 -129 36q-86 39 -129 39q-61 0 -82 -84h-99z" />
<glyph unicode="&#x2dd;" horiz-adv-x="1024" d="M614 1186l136 278h237l-231 -278h-142zM266 1186l135 278h238l-229 -278h-144z" />
<glyph unicode="&#x3a9;" horiz-adv-x="1366" d="M59 0v233h285q-121 76 -178 156q-106 141 -107 361q0 281 177.5 465t447.5 184t446.5 -184.5t176.5 -464.5q0 -180 -65.5 -300t-215.5 -217h281v-233h-549v207q115 63 178 147q106 145 106 367q0 193 -100 318.5t-256 125.5q-150 0 -252 -118q-109 -121 -108 -326 q0 -182 69.5 -306t216.5 -208v-207h-553z" />
<glyph unicode="&#x3c0;" horiz-adv-x="1355" d="M233 0v750h-157v233h1202v-233h-154v-750h-260v750h-370v-750h-261z" />
<glyph unicode="&#x2000;" horiz-adv-x="929" />
<glyph unicode="&#x2001;" horiz-adv-x="1861" />
<glyph unicode="&#x2002;" horiz-adv-x="929" />
<glyph unicode="&#x2003;" horiz-adv-x="1861" />
<glyph unicode="&#x2004;" horiz-adv-x="620" />
<glyph unicode="&#x2005;" horiz-adv-x="464" />
<glyph unicode="&#x2006;" horiz-adv-x="309" />
<glyph unicode="&#x2007;" horiz-adv-x="309" />
<glyph unicode="&#x2008;" horiz-adv-x="231" />
<glyph unicode="&#x2009;" horiz-adv-x="370" />
<glyph unicode="&#x200a;" horiz-adv-x="102" />
<glyph unicode="&#x2010;" horiz-adv-x="499" d="M0 403v220h500v-220h-500z" />
<glyph unicode="&#x2011;" horiz-adv-x="499" d="M0 403v220h500v-220h-500z" />
<glyph unicode="&#x2012;" horiz-adv-x="499" d="M0 403v220h500v-220h-500z" />
<glyph unicode="&#x2013;" d="M72 424v178h952v-178h-952z" />
<glyph unicode="&#x2014;" horiz-adv-x="1499" d="M0 424v178h1499v-178h-1499z" />
<glyph unicode="&#x2018;" horiz-adv-x="546" d="M68 985l174 490h227l-121 -490h-280z" />
<glyph unicode="&#x2019;" horiz-adv-x="546" d="M78 985l123 490h278l-172 -490h-229z" />
<glyph unicode="&#x201a;" horiz-adv-x="546" d="M78 -219l123 489h278l-172 -489h-229z" />
<glyph unicode="&#x201c;" horiz-adv-x="948" d="M469 985l174 490h229l-122 -490h-281zM68 985l174 490h227l-121 -490h-280z" />
<glyph unicode="&#x201d;" horiz-adv-x="948" d="M479 985l123 490h281l-174 -490h-230zM78 985l123 490h278l-172 -490h-229z" />
<glyph unicode="&#x201e;" horiz-adv-x="948" d="M469 -221l123 491h280l-174 -491h-229zM68 -221l122 491h279l-172 -491h-229z" />
<glyph unicode="&#x2020;" d="M428 -416v1315h-334v205h334v371h242v-371h331v-205h-331v-1315h-242z" />
<glyph unicode="&#x2021;" d="M94 10v191h342v725h-342v190h342v359h228v-359h337v-190h-337v-725h337v-191h-337v-426h-228v426h-342z" />
<glyph unicode="&#x2022;" horiz-adv-x="1366" d="M686 410q-119 0 -202 82.5t-83 199.5q0 119 83 202t204 83q115 0 198 -84t83 -201t-83 -199.5t-200 -82.5z" />
<glyph unicode="&#x2024;" horiz-adv-x="548" d="M150 0v246h251v-246h-251z" />
<glyph unicode="&#x2025;" d="M698 0v246h252v-246h-252zM150 0v246h251v-246h-251z" />
<glyph unicode="&#x2026;" horiz-adv-x="1638" d="M1225 0v268h278v-268h-278zM680 0v268h278v-268h-278zM133 0v268h279v-268h-279z" />
<glyph unicode="&#x202f;" horiz-adv-x="370" />
<glyph unicode="&#x2030;" horiz-adv-x="2142" d="M291 -63l776 1493h133l-774 -1493h-135zM348 672q-258 0 -258 346q0 358 258 358t258 -364q0 -164 -66.5 -252t-191.5 -88zM348.5 784q100.5 0 100.5 230q0 250 -103 250q-98 0 -98 -246q0 -234 100.5 -234zM1542 336q0 358 256 358q258 0 258 -362q0 -166 -65.5 -254 t-190.5 -88q-127 0 -192.5 89t-65.5 257zM883 336q0 358 256 358q258 0 258 -362q0 -166 -65.5 -254t-190.5 -88q-127 0 -192.5 89t-65.5 257zM1700 336q0 -233 100 -234q98 0 98 230q0 250 -100 250q-98 0 -98 -246zM1040 336q0 -233 101 -234q98 0 98 230q0 250 -100 250 q-99 0 -99 -246z" />
<glyph unicode="&#x2032;" horiz-adv-x="460" d="M133 926l-47 549h289l-49 -549h-193z" />
<glyph unicode="&#x2033;" horiz-adv-x="833" d="M508 926l-47 549h287l-48 -549h-192zM133 926l-47 549h289l-49 -549h-193z" />
<glyph unicode="&#x2039;" horiz-adv-x="653" d="M328 106l-234 406l228 399h247l-211 -399l217 -406h-247z" />
<glyph unicode="&#x203a;" horiz-adv-x="653" d="M78 106l215 406l-211 399h248l229 -399l-233 -406h-248z" />
<glyph unicode="&#x2044;" horiz-adv-x="376" d="M-127 -63h-147l776 1493h147z" />
<glyph unicode="&#x205f;" horiz-adv-x="464" />
<glyph unicode="&#x2070;" horiz-adv-x="505" d="M252 811q-213 0 -213 287q0 297 213 297q215 0 215 -301q0 -137 -55.5 -210t-159.5 -73zM254 911q76 0 76 185q0 199 -78 198q-76 0 -76 -196q0 -187 78 -187z" />
<glyph unicode="&#x2074;" horiz-adv-x="505" d="M270 819v111h-250v104l222 350h166v-352h75v-102h-75v-111h-138zM154 1032h118l2 205z" />
<glyph unicode="&#x2075;" horiz-adv-x="505" d="M92 825l-24 4l4 123q68 -33 133 -32q53 0 82.5 21.5t29.5 60t-33.5 62t-90.5 23.5q-49 0 -115 -18l4 313h360v-104h-229l-2 -88q16 2 37 2q96 0 155.5 -51t59.5 -135q0 -92 -65.5 -143.5t-184.5 -51.5q-35 0 -121 14z" />
<glyph unicode="&#x2076;" horiz-adv-x="505" d="M260 811q-215 0 -215 270q0 313 252 314q61 0 139 -23l-18 -108q-59 27 -105 26q-109 0 -131 -127q49 35 103 35q82 0 131 -53t49 -141.5t-55.5 -140.5t-149.5 -52zM258 911q31 0 49.5 23.5t18.5 64.5q0 43 -19.5 69t-52.5 26q-31 0 -49.5 -23.5t-18.5 -62.5 q0 -43 19.5 -70t52.5 -27z" />
<glyph unicode="&#x2077;" horiz-adv-x="505" d="M94 819l217 459h-258v104h402v-96l-209 -467h-152z" />
<glyph unicode="&#x2078;" horiz-adv-x="505" d="M256 811q-100 0 -158.5 45t-58.5 123q0 90 88 137q-78 49 -78 125q0 70 55.5 112t149.5 42q90 0 144.5 -39t54.5 -103q0 -82 -80 -129q96 -47 96 -141q0 -80 -57.5 -126t-155.5 -46zM264 1167q57 31 58 74q0 25 -19.5 41t-48.5 16q-31 0 -51.5 -16t-20.5 -39 q0 -27 16.5 -41.5t65.5 -34.5zM256 909q33 0 53.5 18.5t20.5 47.5q0 33 -18.5 51t-67.5 35q-2 -2 -6 -2q-61 -27 -62 -78q0 -33 22.5 -52.5t57.5 -19.5z" />
<glyph unicode="&#x2079;" horiz-adv-x="505" d="M70 831l16 109q61 -27 104 -27q117 0 132 129q-37 -35 -101 -34q-82 0 -132 53t-50 139q0 92 55.5 143.5t153.5 51.5q213 0 213 -267q0 -319 -254 -319q-69 -1 -137 22zM250 1112q31 0 49 22.5t18 61.5q0 45 -19 71.5t-50 26.5t-50.5 -25.5t-19.5 -66.5t19.5 -65.5 t52.5 -24.5z" />
<glyph unicode="&#x2080;" horiz-adv-x="505" d="M252 -8q-213 0 -213 284q0 297 213 297q215 0 215 -299q0 -137 -55.5 -209.5t-159.5 -72.5zM254 92q76 0 76 182q0 199 -78 199q-76 0 -76 -197q0 -184 78 -184z" />
<glyph unicode="&#x2081;" horiz-adv-x="505" d="M219 0v416l-92 -72l-74 86l187 135h116v-565h-137z" />
<glyph unicode="&#x2082;" horiz-adv-x="505" d="M43 0v104q252 211 252 293q0 31 -22.5 49.5t-59.5 18.5q-66 0 -147 -51l-13 118q100 41 190.5 41t143.5 -44t53 -119q0 -127 -211 -306l228 2v-106h-414z" />
<glyph unicode="&#x2083;" horiz-adv-x="505" d="M43 12l8 117q74 -33 142 -33q113 0 112 72q0 70 -133 70h-53v108q23 -2 47 -2q137 0 137 68q0 57 -94 57q-66 0 -141 -33l-9 111q88 27 168 26q102 0 159.5 -38.5t57.5 -110.5q0 -88 -86 -127q90 -37 91 -139q0 -76 -66 -121t-180 -45q-76 0 -160 20z" />
<glyph unicode="&#x2084;" horiz-adv-x="505" d="M20 111v104l222 350h166v-352h75v-102h-75v-111h-138v111h-250zM154 213h118l2 205z" />
<glyph unicode="&#x2085;" horiz-adv-x="505" d="M68 10l4 123q68 -33 133 -33q51 0 81.5 21.5t30.5 58.5q0 39 -33.5 62.5t-90.5 23.5q-49 0 -115 -18l4 315h360v-104h-229l-2 -88h37q96 0 155.5 -51.5t59.5 -135.5q0 -90 -65.5 -141t-184.5 -51q-35 0 -121 14z" />
<glyph unicode="&#x2086;" horiz-adv-x="505" d="M260 -8q-215 0 -215 268q0 313 252 313q59 0 139 -20l-18 -109q-59 25 -105 25q-109 0 -131 -127q49 35 103 35q82 0 131 -53.5t49 -141.5t-55.5 -139t-149.5 -51zM186 188q0 -43 19.5 -69.5t52.5 -26.5q31 0 49.5 23.5t18.5 64.5t-19.5 66.5t-52.5 25.5 q-31 0 -49.5 -22.5t-18.5 -61.5z" />
<glyph unicode="&#x2087;" horiz-adv-x="505" d="M94 0l217 459h-258v104h402v-96l-209 -467h-152z" />
<glyph unicode="&#x2088;" horiz-adv-x="505" d="M39 158q0 92 88 139q-78 49 -78 123q0 70 55.5 111.5t149.5 41.5q90 0 144.5 -38.5t54.5 -102.5q0 -80 -80 -127q96 -47 96 -143q0 -78 -57.5 -124t-155.5 -46q-100 0 -158.5 45t-58.5 121zM264 348q57 29 58 72q0 25 -19.5 41t-48.5 16q-31 0 -51.5 -15.5t-20.5 -40 t16.5 -40t65.5 -33.5zM176 160q0 -31 22.5 -50.5t57.5 -19.5q33 0 53.5 18.5t20.5 47.5q0 31 -19.5 50t-66.5 34l-6 -2q-62 -29 -62 -78z" />
<glyph unicode="&#x2089;" horiz-adv-x="505" d="M70 12l16 109q63 -25 104 -25q115 0 132 127q-37 -35 -101 -35q-82 0 -132 53.5t-50 139.5q0 90 55.5 141t153.5 51q213 0 213 -264q0 -317 -254 -317q-74 0 -137 20zM250 293q31 0 49 22.5t18 59.5q0 45 -19 71.5t-50 26.5t-50.5 -25.5t-19.5 -64.5q0 -41 19.5 -65.5 t52.5 -24.5z" />
<glyph unicode="&#x20ac;" horiz-adv-x="1316" d="M72 514l45 141h100v29v39h-145l45 141h116q31 147 84 242q80 137 229.5 214t336.5 77q211 0 360 -90l-84 -271q-106 150 -276 150q-129 0 -219.5 -82t-133.5 -240h576l-45 -141h-549q-2 -20 -2 -41v-27h528l-45 -141h-465q37 -160 130.5 -247t226.5 -87q176 0 278 154 v-314q-129 -51 -284 -51q-262 0 -435.5 144.5t-214.5 400.5h-157z" />
<glyph unicode="&#x2113;" horiz-adv-x="1024" d="M289 248q0 63 4 123l-12 -13l-19 -18q-25 -25 -39 -25t-26.5 16.5t-12.5 35.5q0 25 31 57l94 108q70 373 164 601q106 254 262 253q72 0 115 -52t43 -138q0 -176 -139 -391q-55 -88 -219 -258l-5 -21l-24 -123q-33 -168 -33 -235q0 -59 33 -59q41 0 86 98q18 43 45 43 q37 0 37 -43q0 -88 -72 -163t-156 -75q-157 0 -157 279zM565 729q209 242 209 447q0 82 -37 81.5t-65 -79.5q-56 -162 -107 -449z" />
<glyph unicode="&#x2117;" horiz-adv-x="1615" d="M100 682q0 299 209 507t512 208q285 0 491 -211t206 -502q0 -297 -207 -506t-500 -209t-502 210t-209 503zM240 682q0 -242 167.5 -415t403.5 -173q233 0 400 173t167 415t-164.5 416t-394.5 174q-244 0 -411.5 -171t-167.5 -419zM553 301v782h278q154 0 222 -45 q84 -57 84 -166q0 -90 -80 -172t-226 -82h-92v-317h-186zM737 756h76q139 0 139 100q0 88 -125 88h-90v-188z" />
<glyph unicode="&#x2122;" horiz-adv-x="1783" d="M748 588v782h278l150 -405q31 -88 45 -148q12 53 34 115l158 438h283v-782h-185v461q0 98 7 141l-218 -602h-165l-181 485l-36 107q6 -92 6 -125v-467h-176zM236 588v637h-234v145h655v-145h-237v-637h-184z" />
<glyph unicode="&#x2126;" horiz-adv-x="1366" d="M59 0v233h285q-121 76 -178 156q-106 141 -107 361q0 281 177.5 465t447.5 184t446.5 -184.5t176.5 -464.5q0 -180 -65.5 -300t-215.5 -217h281v-233h-549v207q115 63 178 147q106 145 106 367q0 193 -100 318.5t-256 125.5q-150 0 -252 -118q-109 -121 -108 -326 q0 -182 69.5 -306t216.5 -208v-207h-553z" />
<glyph unicode="&#x212e;" horiz-adv-x="1789" d="M328 166q-229 199 -230 514q0 322 230 514q236 195 579.5 195t567.5 -205q217 -203 217 -541h-1260v-377q178 -211 479 -211q295 0 469 211h205q-229 -293 -690 -293q-336 0 -567 193zM432 731h942v350q-168 223 -477 224q-307 0 -465 -224v-350z" />
<glyph unicode="&#x2153;" horiz-adv-x="1826" d="M451 -63l776 1493h147l-776 -1493h-147zM319 547v618l-137 -110l-102 121l266 194h164v-823h-191zM1161 18l13 160q104 -45 202 -45q80 0 125 30t45 81q0 109 -203 108q-39 0 -71 -2v152q33 -2 63 -2q207 0 207 104q0 88 -143 88q-102 0 -201 -47l-12 154q131 39 239 39 q150 0 232 -57.5t82 -159.5q0 -131 -131 -189q139 -53 139 -203q0 -113 -95.5 -177t-260.5 -64q-117 -1 -230 30z" />
<glyph unicode="&#x2154;" horiz-adv-x="1826" d="M451 -63l776 1493h147l-776 -1493h-147zM57 547v149q369 311 369 432q0 49 -34 78t-91 29q-96 0 -211 -76l-16 166q147 59 272 59q129 0 206 -64.5t77 -172.5q0 -117 -137 -277q-78 -92 -177 -178l338 2v-147h-596zM1161 18l13 160q104 -45 202 -45q80 0 125 30t45 81 q0 109 -203 108q-39 0 -71 -2v152q33 -2 63 -2q207 0 207 104q0 88 -143 88q-102 0 -201 -47l-12 154q131 39 239 39q150 0 232 -57.5t82 -159.5q0 -131 -131 -189q139 -53 139 -203q0 -113 -95.5 -177t-260.5 -64q-117 -1 -230 30z" />
<glyph unicode="&#x215b;" horiz-adv-x="1826" d="M451 -63l776 1493h147l-776 -1493h-147zM319 547v618l-137 -110l-102 121l266 194h164v-823h-191zM1153 229q0 72 37 127.5t100 75.5q-66 37 -93.5 79t-27.5 103q0 102 80 163t213 61q131 0 209 -55.5t78 -149.5q0 -123 -123 -187q78 -37 113 -86t35 -124 q0 -117 -83 -182.5t-229 -65.5q-141 0 -225 65t-84 176zM1356 618q0 -39 25.5 -63.5t97.5 -50.5q86 45 86 110q0 39 -29 65t-72 26q-47 0 -77.5 -25t-30.5 -62zM1348 231q0 -45 33.5 -75.5t86.5 -30.5q51 0 81 27.5t30 74.5t-28.5 75t-102.5 52q-10 -4 -14 -6 q-86 -41 -86 -117z" />
<glyph unicode="&#x215c;" horiz-adv-x="1826" d="M453 -63l776 1493h147l-776 -1493h-147zM61 563l13 162q106 -47 202 -47q80 0 125 29.5t45 80.5q0 109 -202 109q-39 0 -72 -2v152q31 -2 64 -3q207 0 206 107q0 88 -143 88q-102 0 -201 -47l-12 154q131 39 240 38q150 0 231.5 -57t81.5 -162q0 -131 -131 -188 q139 -53 139 -203q0 -113 -95 -177.5t-261 -64.5q-117 0 -230 31zM1155 229q0 72 37 127.5t100 75.5q-68 37 -95.5 79t-27.5 103q0 100 81 162t214 62q131 0 209 -55.5t78 -149.5q0 -123 -125 -187q80 -37 115 -86t35 -124q0 -117 -83 -182.5t-229 -65.5q-141 0 -225 65 t-84 176zM1356 618q0 -39 26.5 -63.5t98.5 -50.5q86 45 86 110q0 39 -29 65t-74 26q-47 0 -77.5 -25t-30.5 -62zM1350 231q0 -45 33.5 -75.5t86.5 -30.5q51 0 81 27.5t30 74.5q0 45 -29.5 74t-103.5 53q-6 -2 -14 -6q-84 -37 -84 -117z" />
<glyph unicode="&#x215d;" horiz-adv-x="1826" d="M453 -63l776 1493h147l-776 -1493h-147zM96 559l4 170q96 -45 191 -45q76 0 122 34t46 91q0 59 -50.5 95t-134.5 36q-74 0 -165 -27l8 453h518v-145h-336l-4 -140l59 2q137 4 223.5 -71.5t86.5 -196.5q0 -133 -95.5 -208t-267.5 -75q-70 0 -205 27zM1155 229 q0 72 37 127.5t100 75.5q-68 37 -95.5 79t-27.5 103q0 100 81 162t214 62q131 0 209 -55.5t78 -149.5q0 -123 -123 -187q78 -37 113 -86t35 -124q0 -117 -83 -182.5t-229 -65.5q-141 0 -225 65t-84 176zM1356 618q0 -39 26.5 -63.5t98.5 -50.5q86 45 86 110q0 39 -29 65 t-74 26q-47 0 -77.5 -25t-30.5 -62zM1350 231q0 -45 33.5 -75.5t86.5 -30.5q51 0 81 27.5t30 74.5t-28.5 75t-104.5 52q-2 0 -6 -2l-8 -4q-84 -39 -84 -117z" />
<glyph unicode="&#x215e;" horiz-adv-x="1826" d="M453 -63l774 1493h149l-776 -1493h-147zM135 547l320 676h-381v143h579v-135l-305 -684h-213zM1153 229q0 72 38 126.5t101 76.5q-68 37 -95.5 79t-27.5 103q0 100 81 162t214 62q131 0 209 -55.5t78 -149.5q0 -123 -125 -187q80 -37 115 -86t35 -124q0 -117 -83 -182.5 t-231 -65.5q-141 0 -225 65t-84 176zM1356 618q0 -39 25.5 -63.5t97.5 -50.5q88 45 88 110q0 39 -29 65t-74 26q-47 0 -77.5 -25t-30.5 -62zM1348 231q0 -47 34.5 -76.5t87.5 -29.5q51 0 81 27.5t30 74.5t-28.5 75t-104.5 52q-2 0 -6 -2l-8 -4q-86 -39 -86 -117z" />
<glyph unicode="&#x21e7;" horiz-adv-x="2232" d="M158 535l958 956l955 -956h-478v-535h-956v535h-479zM795 158h639v536h254l-572 572l-571 -572h252z" />
<glyph unicode="&#x2202;" horiz-adv-x="1024" d="M33 451q0 184 121.5 310t302.5 126q154 0 252 -96q-57 145 -210 236t-370 110l33 225q199 -20 332 -71.5t239 -145.5q254 -223 254 -596q0 -258 -131 -412.5t-350 -154.5q-197 0 -335 137t-138 332zM297 442q0 -113 61.5 -189.5t149.5 -76.5q90 0 151.5 76t61.5 188 q0 111 -60.5 183.5t-150.5 72.5q-92 0 -152.5 -72.5t-60.5 -181.5z" />
<glyph unicode="&#x2206;" horiz-adv-x="1366" d="M35 0l504 1366h280l512 -1366h-1296zM406 242h548l-274 809z" />
<glyph unicode="&#x220f;" horiz-adv-x="1497" d="M82 -254h170v1565h-170v241h1335v-241h-172v-1565h172v-242h-594v242h162v1565h-473v-1565h162v-242h-592v242z" />
<glyph unicode="&#x2211;" horiz-adv-x="1366" d="M43 -227l500 790l-500 721v268h1225v-512h-234l-26 271h-672l512 -748l-512 -817h692l14 268h244v-510h-1243v269z" />
<glyph unicode="&#x2212;" d="M72 621v178h956v-178h-956z" />
<glyph unicode="&#x221a;" horiz-adv-x="1366" d="M311 0l-118 559h-193v242h406l40 -185q25 -113 29 -301h21q18 274 94 605l182 782h594v-242h-367l-344 -1460h-344z" />
<glyph unicode="&#x221e;" horiz-adv-x="1366" d="M369 362q-145 0 -239.5 94.5t-94.5 239.5q0 143 93 237.5t239 94.5q168 0 311 -162q139 162 319 162q145 0 239.5 -93t94.5 -238.5t-93 -240t-237 -94.5q-176 0 -311 166q-147 -166 -321 -166zM811 696q74 -115 152 -114q47 0 79.5 32.5t32.5 79.5t-33.5 81t-80.5 34 q-74 0 -150 -113zM406 582q76 0 149 114q-72 113 -152 113q-47 0 -79.5 -33t-32.5 -80t34 -80.5t81 -33.5z" />
<glyph unicode="&#x222b;" horiz-adv-x="1024" d="M152 -244q74 -18 114.5 -18t70.5 19.5t38 52t8 198.5v991q0 254 23 336q27 102 114.5 159.5t214.5 57.5q76 0 187 -20l-48 -232q-72 18 -114 19q-106 0 -115 -115q-2 -8 -2 -289v-858q0 -203 -8 -273.5t-37 -121.5q-88 -158 -307 -158q-78 0 -187 21z" />
<glyph unicode="&#x2248;" horiz-adv-x="1024" d="M158 711l-144 94q66 160 133.5 221t178.5 61q63 0 211 -55q131 -49 178 -49q49 0 80.5 22.5t66.5 86.5l148 -86q-74 -160 -148 -213q-82 -59 -176 -60q-55 0 -207 55q-133 49 -172 50q-51 0 -81.5 -25.5t-67.5 -101.5zM158 301l-144 92q66 160 133.5 221.5t176.5 61.5 q70 0 213 -53q133 -49 180 -49.5t78.5 22t66.5 84.5l148 -86q-76 -160 -148 -213q-82 -57 -176 -57q-53 0 -207 55q-131 47 -170 47q-53 0 -83.5 -25.5t-67.5 -99.5z" />
<glyph unicode="&#x2260;" d="M268 328l64 135h-260v178h342l63 137h-405v178h489l101 215l169 -79l-63 -136h260v-178h-342l-63 -137h405v-178h-489l-101 -215z" />
<glyph unicode="&#x2264;" horiz-adv-x="1024" d="M68 723v217l886 424v-244l-612 -284l612 -283v-246zM68 6v242h886v-242h-886z" />
<glyph unicode="&#x2265;" horiz-adv-x="1024" d="M68 307v246l612 285l-612 282v244l886 -424v-217zM68 6v242h886v-242h-886z" />
<glyph unicode="&#x2303;" horiz-adv-x="1753" d="M397 569l-159 160l639 637l636 -637l-159 -160l-477 478z" />
<glyph unicode="&#x2318;" horiz-adv-x="1724" d="M156 291q0 127 92 220t223 93h156v158h-156q-131 0 -223 92t-92 221t92 221.5t223 92.5q127 0 220 -93.5t93 -220.5v-157h156v157q0 129 93 221.5t222 92.5t220.5 -92.5t91.5 -221.5t-91.5 -221t-220.5 -92h-157v-158h157q129 0 220.5 -92t91.5 -221t-91.5 -221.5 t-220.5 -92.5q-133 0 -224 92.5t-91 221.5v158h-156v-158q0 -129 -91 -221.5t-222 -92.5q-133 0 -224 92.5t-91 221.5zM1098 918h157q63 0 109.5 47t46.5 110.5t-46 110.5t-110 47q-66 0 -111.5 -46t-45.5 -112v-157zM471 918h156v157q0 66 -46 112t-110 46q-66 0 -112 -46 t-46 -111.5t46 -111.5t112 -46zM784 604h156v158h-156v-158zM1098 291q0 -63 46 -110.5t111 -47.5q63 0 109.5 46t46.5 111.5t-46 112t-110 46.5h-157v-158zM313 291q0 -63 46.5 -110.5t111.5 -47.5q63 0 109.5 47t46.5 111v158h-156q-66 0 -112 -46t-46 -112z" />
<glyph unicode="&#x2325;" horiz-adv-x="1890" d="M1092 1208v158h639v-158h-639zM1184 0l-602 1208h-424v158h549l600 -1208h424v-158h-547z" />
<glyph unicode="&#x2460;" horiz-adv-x="1679" d="M90 725q0 311 219 530.5t530.5 219.5t530.5 -219.5t219 -530.5t-219 -530.5t-530.5 -219.5t-530.5 219.5t-219 530.5zM788 289h162v874h-119l-188 -192l57 -107l88 109v-684z" />
<glyph unicode="&#x2461;" horiz-adv-x="1679" d="M90 725q0 311 219 530.5t530.5 219.5t530.5 -219.5t219 -530.5t-219 -530.5t-530.5 -219.5t-530.5 219.5t-219 530.5zM616 289h455v123h-262q8 10 53 72.5t70 101.5q123 195 123 338q0 117 -59.5 185.5t-161.5 68.5q-115 0 -199 -64l12 -139q23 23 72 50.5t92 27.5 q33 0 55.5 -36t22.5 -89q0 -63 -32 -138t-66.5 -126.5t-93 -127t-81.5 -108.5v-139z" />
<glyph unicode="&#x2462;" horiz-adv-x="1679" d="M90 725q0 311 219 530.5t530.5 219.5t530.5 -219.5t219 -530.5t-219 -530.5t-530.5 -219.5t-530.5 219.5t-219 530.5zM631 311q68 -37 162 -37q133 0 207.5 66t74.5 186q0 170 -131 215q57 25 92 78t35 123q0 109 -68.5 172.5t-183.5 63.5q-102 0 -166 -48l6 -135 q78 57 144 58q47 0 75.5 -33t28.5 -88q0 -66 -39 -96.5t-98 -30.5h-51v-127h61q131 0 131 -146q0 -59 -37.5 -96t-97.5 -37q-51 0 -145 52v-140z" />
<glyph unicode="&#x2463;" horiz-adv-x="1679" d="M90 725q0 311 219 530.5t530.5 219.5t530.5 -219.5t219 -530.5t-219 -530.5t-530.5 -219.5t-530.5 219.5t-219 530.5zM563 477h275v-188h155v188h90v123h-90v563h-202l-228 -561v-125zM723 600l115 313v-313h-115z" />
<glyph unicode="&#x2464;" horiz-adv-x="1679" d="M90 725q0 311 219 530.5t530.5 219.5t530.5 -219.5t219 -530.5t-219 -530.5t-530.5 -219.5t-530.5 219.5t-219 530.5zM631 313q111 -37 190 -37q127 0 203 81t76 227q0 125 -65.5 197.5t-164.5 72.5q-51 0 -79 -6v182h272v133h-418v-467q82 35 141 35q74 0 112 -44 t38 -109q0 -74 -37 -119t-102 -45q-68 0 -158 49z" />
<glyph unicode="&#x2465;" horiz-adv-x="1679" d="M90 725q0 311 219 530.5t530.5 219.5t530.5 -219.5t219 -530.5t-219 -530.5t-530.5 -219.5t-530.5 219.5t-219 530.5zM823 274q104 0 169 79t65 212t-57.5 209t-159.5 76q-53 0 -97 -47q18 250 152 250q41 0 113 -43q4 39 18 137q-86 31 -147 31q-139 0 -214 -126 t-75 -360q0 -418 233 -418zM823 397q-33 0 -51 42t-18 89q0 197 69 197q33 0 51.5 -44t18.5 -118q0 -72 -20.5 -119t-49.5 -47z" />
<glyph unicode="&#x2466;" horiz-adv-x="1679" d="M90 725q0 311 219 530.5t530.5 219.5t530.5 -219.5t219 -530.5t-219 -530.5t-530.5 -219.5t-530.5 219.5t-219 530.5zM662 289h176l231 751v123h-451v-125h287z" />
<glyph unicode="&#x2467;" horiz-adv-x="1679" d="M90 725q0 311 219 530.5t530.5 219.5t530.5 -219.5t219 -530.5t-219 -530.5t-530.5 -219.5t-530.5 219.5t-219 530.5zM596 516q0 -109 67.5 -175.5t174.5 -66.5q111 0 177 67t66 179q0 158 -133 234q57 31 94 90t37 123q0 92 -66.5 151.5t-170.5 59.5 q-113 0 -179.5 -60.5t-66.5 -163.5q0 -133 131 -211q-131 -75 -131 -227zM852 807q-100 61 -100 139q0 45 24.5 77t59 32t57 -29t22.5 -76q0 -96 -63 -143zM760 522q0 96 67 156q90 -57 91 -158q0 -55 -20.5 -89t-55.5 -34t-58.5 37t-23.5 88z" />
<glyph unicode="&#x2468;" horiz-adv-x="1679" d="M90 725q0 311 219 530.5t530.5 219.5t530.5 -219.5t219 -530.5t-219 -530.5t-530.5 -219.5t-530.5 219.5t-219 530.5zM647 303q74 -29 146 -29q135 0 211.5 127t76.5 359q0 418 -235 418q-104 0 -168 -80t-64 -213q0 -135 57.5 -211t159.5 -76q47 0 97 49 q-6 -98 -42 -173t-110 -75q-45 0 -110 39zM846 725q-68 0 -68 162q0 72 19.5 120t48.5 48q35 0 53.5 -45t18.5 -107q0 -178 -72 -178z" />
<glyph unicode="&#x2469;" horiz-adv-x="1679" d="M90 725q0 311 219 530.5t530.5 219.5t530.5 -219.5t219 -530.5t-219 -530.5t-530.5 -219.5t-530.5 219.5t-219 530.5zM1032 274q117 0 178.5 118t61.5 333t-61.5 334t-178.5 119q-119 0 -180 -119t-61 -334t61 -333t180 -118zM522 289h162v874h-119l-188 -192l57 -107 l88 109v-684zM1032 397q-76 0 -76 328q0 330 76 330t76 -330q0 -328 -76 -328z" />
<glyph unicode="&#x246a;" horiz-adv-x="1679" d="M90 725q0 311 219 530.5t530.5 219.5t530.5 -219.5t219 -530.5t-219 -530.5t-530.5 -219.5t-530.5 219.5t-219 530.5zM981 289h162v874h-119l-188 -192l57 -107l88 109v-684zM559 289h162v874h-119l-188 -192l57 -107l88 109v-684z" />
<glyph unicode="&#x246b;" horiz-adv-x="1679" d="M90 725q0 311 219 530.5t530.5 219.5t530.5 -219.5t219 -530.5t-219 -530.5t-530.5 -219.5t-530.5 219.5t-219 530.5zM801 289h454v123h-262q8 10 53.5 72.5t69.5 101.5q123 195 123 338q0 117 -59.5 185.5t-161.5 68.5q-115 0 -199 -64l12 -139q23 23 72 50.5t92 27.5 q33 0 55.5 -36t22.5 -89q0 -63 -31.5 -138t-66.5 -126.5t-93.5 -127t-80.5 -108.5v-139zM518 289h162v874h-119l-188 -192l57 -107l88 109v-684z" />
<glyph unicode="&#x246c;" horiz-adv-x="1679" d="M90 725q0 311 219 530.5t530.5 219.5t530.5 -219.5t219 -530.5t-219 -530.5t-530.5 -219.5t-530.5 219.5t-219 530.5zM786 311q68 -37 162 -37q133 0 208 66t75 186q0 170 -131 215q57 25 92 78t35 123q0 109 -68.5 172.5t-183.5 63.5q-102 0 -166 -48l6 -135 q78 57 143 58q47 0 76 -33t29 -88q0 -66 -39 -96.5t-98 -30.5h-52v-127h62q131 0 131 -146q0 -59 -38 -96t-97 -37q-51 0 -146 52v-140zM530 289h162v874h-119l-188 -192l57 -107l88 109v-684z" />
<glyph unicode="&#x246d;" horiz-adv-x="1679" d="M90 725q0 311 219 530.5t530.5 219.5t530.5 -219.5t219 -530.5t-219 -530.5t-530.5 -219.5t-530.5 219.5t-219 530.5zM754 477h274v-188h156v188h90v123h-90v563h-203l-227 -561v-125zM512 289h162v874h-119l-188 -192l57 -107l88 109v-684zM913 600l115 313v-313h-115z " />
<glyph unicode="&#x246e;" horiz-adv-x="1679" d="M90 725q0 311 219 530.5t530.5 219.5t530.5 -219.5t219 -530.5t-219 -530.5t-530.5 -219.5t-530.5 219.5t-219 530.5zM791 313q111 -37 190 -37q127 0 203 81t76 227q0 125 -66 197.5t-164 72.5q-51 0 -80 -6v182h273v133h-418v-467q82 35 141 35q74 0 112 -44t38 -109 q0 -74 -37 -119t-103 -45q-68 0 -157 49zM514 289h162v874h-119l-188 -192l57 -107l88 109v-684z" />
<glyph unicode="&#x246f;" horiz-adv-x="1679" d="M90 725q0 311 219 530.5t530.5 219.5t530.5 -219.5t219 -530.5t-219 -530.5t-530.5 -219.5t-530.5 219.5t-219 530.5zM782 692q0 -418 234 -418q104 0 168.5 79t64.5 212t-57 209t-160 76q-53 0 -96 -47q18 250 151 250q41 0 113 -43q4 39 19 137q-86 31 -148 31 q-139 0 -214 -126.5t-75 -359.5zM502 289h162v874h-119l-189 -192l58 -107l88 109v-684zM946 528q0 197 70 197q33 0 51 -44t18 -118q0 -72 -20.5 -119t-48.5 -47q-33 0 -51.5 42t-18.5 89z" />
<glyph unicode="&#x2470;" horiz-adv-x="1679" d="M90 725q0 311 219 530.5t530.5 219.5t530.5 -219.5t219 -530.5t-219 -530.5t-530.5 -219.5t-530.5 219.5t-219 530.5zM840 289h176l231 751v123h-450v-125h286zM532 289h162v874h-119l-188 -192l57 -107l88 109v-684z" />
<glyph unicode="&#x2471;" horiz-adv-x="1679" d="M90 725q0 311 219 530.5t530.5 219.5t530.5 -219.5t219 -530.5t-219 -530.5t-530.5 -219.5t-530.5 219.5t-219 530.5zM768 516q0 -109 67.5 -175.5t174.5 -66.5q111 0 177 67t66 179q0 158 -133 234q57 31 94 90t37 123q0 92 -66.5 151.5t-170.5 59.5 q-113 0 -179.5 -60.5t-66.5 -163.5q0 -133 131 -211q-131 -75 -131 -227zM498 289h161v874h-118l-189 -192l58 -107l88 109v-684zM1024 807q-100 61 -100 139q0 45 24.5 77t59 32t57 -29t22.5 -76q0 -96 -63 -143zM932 522q0 96 67 156q90 -57 91 -158q0 -55 -20.5 -89 t-55.5 -34t-58.5 37t-23.5 88z" />
<glyph unicode="&#x2472;" horiz-adv-x="1679" d="M90 725q0 311 219 530.5t530.5 219.5t530.5 -219.5t219 -530.5t-219 -530.5t-530.5 -219.5t-530.5 219.5t-219 530.5zM827 303q74 -29 146 -29q135 0 212 127t77 359q0 418 -236 418q-104 0 -167.5 -80t-63.5 -213q0 -135 57 -211t160 -76q47 0 96 49q-6 -98 -42 -173 t-110 -75q-45 0 -110 39zM528 289h162v874h-119l-188 -192l57 -107l88 109v-684zM1026 725q-68 0 -68 162q0 72 19.5 120t48.5 48q35 0 53.5 -45t18.5 -107q0 -178 -72 -178z" />
<glyph unicode="&#x2473;" horiz-adv-x="1679" d="M90 725q0 311 219 530.5t530.5 219.5t530.5 -219.5t219 -530.5t-219 -530.5t-530.5 -219.5t-530.5 219.5t-219 530.5zM854 725q0 -215 61.5 -333t180.5 -118q117 0 178 118t61 333t-61.5 334t-177.5 119q-119 0 -180.5 -119t-61.5 -334zM350 289h455v123h-262 q8 10 53 72.5t70 101.5q123 195 122 338q0 117 -59 185.5t-162 68.5q-115 0 -198 -64l12 -139q23 23 72 50.5t92 27.5q33 0 55.5 -36t22.5 -89q0 -63 -32 -138t-67 -126.5t-93 -127t-81 -108.5v-139zM1095.5 397q-75.5 0 -75.5 328q0 330 75.5 330t75.5 -330 q0 -328 -75.5 -328z" />
<glyph unicode="&#x25ca;" horiz-adv-x="1366" d="M684 -53l-532 735l532 737l530 -737zM684 129l403 553l-403 555l-403 -555z" />
<glyph unicode="&#xe000;" horiz-adv-x="1014" d="M0 1015h1015v-1015h-1015v1015z" />
<glyph unicode="&#xe103;" horiz-adv-x="1142" d="M135 0v819h-203v195h203q4 150 15.5 212t44.5 115q88 139 307 140q61 0 137 -19l-16 -211q-39 10 -70 11q-104 0 -139 -88q-16 -37 -17 -160h230v-195h-230v-819h-262zM743 1198v248h271v-248h-271zM748 0v1014h262v-1014h-262z" />
<glyph unicode="&#xe104;" horiz-adv-x="1150" d="M135 0v819h-203v195h203q4 150 15.5 213t44.5 114q86 139 309 140q63 0 121 -19l-17 -211q-43 10 -65 11q-53 0 -92 -33t-48 -86q-6 -37 -6 -129h215v-195h-215v-819h-262zM745 0v1475h263v-1475h-263z" />
<glyph unicode="&#xe105;" horiz-adv-x="724" d="M319 547v618l-137 -110l-102 121l266 194h164v-823h-191z" />
<glyph unicode="&#xe107;" horiz-adv-x="724" d="M57 547v149q369 311 369 432q0 49 -34 78t-91 29q-96 0 -211 -76l-16 166q147 59 272 59q129 0 206 -64.5t77 -172.5q0 -117 -137 -277q-78 -92 -177 -178l338 2v-147h-596z" />
<glyph unicode="&#xe108;" horiz-adv-x="724" d="M61 563l13 162q106 -47 202 -47q80 0 125 29.5t45 80.5q0 109 -202 109q-39 0 -72 -2v152q31 -2 64 -3q207 0 206 107q0 88 -143 88q-102 0 -201 -47l-12 154q131 39 240 38q150 0 231.5 -57t81.5 -162q0 -131 -131 -188q139 -53 139 -203q0 -113 -95 -177.5t-261 -64.5 q-117 0 -230 31z" />
<glyph unicode="&#xec73;" horiz-adv-x="505" d="M221 819v416l-92 -72l-74 86l187 135h116v-565h-137zM0 629v108h506v-108h-506zM43 0v104q252 211 252 293q0 31 -22.5 49.5t-59.5 18.5q-66 0 -147 -51l-13 118q100 41 190.5 41t143.5 -44t53 -119q0 -127 -211 -306l228 2v-106h-414z" />
<glyph unicode="&#xec74;" horiz-adv-x="505" d="M221 819v416l-92 -72l-74 86l187 135h116v-565h-137zM0 629v108h506v-108h-506zM43 12l8 117q74 -33 142 -33q113 0 112 72q0 70 -133 70h-53v108q23 -2 47 -2q137 0 137 68q0 57 -94 57q-66 0 -141 -33l-9 111q88 27 168 26q102 0 159.5 -38.5t57.5 -110.5 q0 -88 -86 -127q90 -37 91 -139q0 -76 -66 -121t-180 -45q-76 0 -160 20z" />
<glyph unicode="&#xec75;" horiz-adv-x="505" d="M43 819v107q252 209 252 293q0 31 -22.5 49t-59.5 18q-66 0 -147 -53l-13 119q100 43 190.5 43t143.5 -45t53 -121q0 -127 -211 -303h228v-107h-414zM0 629v108h506v-108h-506zM43 12l8 117q74 -33 142 -33q113 0 112 72q0 70 -133 70h-53v108q23 -2 47 -2q137 0 137 68 q0 57 -94 57q-66 0 -141 -33l-9 111q88 27 168 26q102 0 159.5 -38.5t57.5 -110.5q0 -88 -86 -127q90 -37 91 -139q0 -76 -66 -121t-180 -45q-76 0 -160 20z" />
<glyph unicode="&#xec76;" horiz-adv-x="505" d="M221 819v416l-92 -72l-74 86l187 135h116v-565h-137zM0 629v108h506v-108h-506zM20 111v104l222 350h166v-352h75v-102h-75v-111h-138v111h-250zM154 213h118l2 205z" />
<glyph unicode="&#xec77;" horiz-adv-x="505" d="M43 834l8 114q74 -33 142 -33q113 0 112 72q0 70 -133 70h-53v108q23 -2 47 -2q137 0 137 70q0 57 -94 57q-72 0 -141 -35l-9 113q98 27 168 27q102 0 159.5 -40t57.5 -112q0 -86 -86 -127q90 -37 91 -139q0 -76 -66 -121t-180 -45q-80 0 -160 23zM0 629v108h506v-108 h-506zM20 111v104l222 350h166v-352h75v-102h-75v-111h-138v111h-250zM154 213h118l2 205z" />
<glyph unicode="&#xec7c;" horiz-adv-x="505" d="M221 819v416l-92 -72l-74 86l187 135h116v-565h-137zM0 629v108h506v-108h-506zM39 158q0 92 88 139q-78 45 -78 123q0 70 55.5 111.5t147.5 41.5q90 0 144.5 -38.5t54.5 -102.5q0 -80 -78 -127q94 -47 94 -143q0 -78 -57.5 -124t-155.5 -46t-156.5 45t-58.5 121z M262 348q57 29 57 72q0 25 -19 41t-48 16t-49.5 -16.5t-20.5 -38.5q0 -25 16.5 -40.5t63.5 -33.5zM176 160q0 -31 22.5 -50.5t57.5 -19.5q33 0 52.5 18.5t19.5 47.5q0 31 -19.5 50t-66.5 34q-66 -29 -66 -80z" />
<glyph unicode="&#xec7d;" horiz-adv-x="505" d="M43 834l8 114q74 -33 142 -33q113 0 112 72q0 70 -133 70h-53v108q23 -2 47 -2q137 0 137 70q0 57 -94 57q-72 0 -141 -35l-9 113q98 27 168 27q102 0 159.5 -40t57.5 -112q0 -86 -86 -127q90 -37 91 -139q0 -76 -66 -121t-180 -45q-80 0 -160 23zM0 629v108h506v-108 h-506zM39 158q0 92 88 139q-78 45 -78 123q0 70 55.5 111.5t147.5 41.5q90 0 144.5 -38.5t54.5 -102.5q0 -80 -78 -127q94 -47 94 -143q0 -78 -57.5 -124t-155.5 -46t-156.5 45t-58.5 121zM262 348q57 29 57 72q0 25 -19 41t-48 16t-49.5 -16.5t-20.5 -38.5 q0 -25 16.5 -40.5t63.5 -33.5zM176 160q0 -31 22.5 -50.5t57.5 -19.5q33 0 52.5 18.5t19.5 47.5q0 31 -19.5 50t-66.5 34q-66 -29 -66 -80z" />
<glyph unicode="&#xec7e;" horiz-adv-x="505" d="M92 825l-24 4l4 123q68 -33 133 -32q53 0 82.5 21.5t29.5 60t-33.5 62t-90.5 23.5q-49 0 -115 -18l4 313h360v-104h-229l-2 -88q16 2 37 2q96 0 155.5 -51t59.5 -135q0 -92 -65.5 -143.5t-184.5 -51.5q-35 0 -121 14zM0 629v108h506v-108h-506zM39 158q0 92 88 139 q-78 45 -78 123q0 70 55.5 111.5t147.5 41.5q90 0 144.5 -38.5t54.5 -102.5q0 -80 -78 -127q94 -47 94 -143q0 -78 -57.5 -124t-155.5 -46t-156.5 45t-58.5 121zM262 348q57 29 57 72q0 25 -19 41t-48 16t-49.5 -16.5t-20.5 -38.5q0 -25 16.5 -40.5t63.5 -33.5zM176 160 q0 -31 22.5 -50.5t57.5 -19.5q33 0 52.5 18.5t19.5 47.5q0 31 -19.5 50t-66.5 34q-66 -29 -66 -80z" />
<glyph unicode="&#xec7f;" horiz-adv-x="505" d="M94 819l217 459h-258v104h402v-96l-209 -467h-152zM0 629v108h506v-108h-506zM39 158q0 92 88 139q-78 45 -78 123q0 70 55.5 111.5t147.5 41.5q90 0 144.5 -38.5t54.5 -102.5q0 -80 -78 -127q94 -47 94 -143q0 -78 -57.5 -124t-155.5 -46t-156.5 45t-58.5 121zM262 348 q57 29 57 72q0 25 -19 41t-48 16t-49.5 -16.5t-20.5 -38.5q0 -25 16.5 -40.5t63.5 -33.5zM176 160q0 -31 22.5 -50.5t57.5 -19.5q33 0 52.5 18.5t19.5 47.5q0 31 -19.5 50t-66.5 34q-66 -29 -66 -80z" />
<glyph unicode="&#xf655;" horiz-adv-x="724" d="M362.5 -12q-151.5 0 -230.5 106.5t-79 308.5q0 434 309 435q170 0 250 -136q61 -102 61.5 -302.5t-79.5 -306t-231.5 -105.5zM364.5 127q116.5 0 116.5 274q0 297 -119 297q-115 0 -114 -295q0 -276 116.5 -276z" />
<glyph unicode="&#xf656;" horiz-adv-x="724" d="M319 0v618l-137 -108l-102 121l266 194h164v-825h-191z" />
<glyph unicode="&#xf657;" horiz-adv-x="724" d="M57 0v150q369 311 369 432q0 49 -34 77.5t-91 28.5q-96 0 -211 -76l-16 166q147 59 272 60q129 0 206 -64.5t77 -173.5q0 -117 -137 -276q-78 -92 -177 -179l338 2v-147h-596z" />
<glyph unicode="&#xf658;" horiz-adv-x="724" d="M61 18l13 160q104 -45 202 -45q80 0 125 30t45 81q0 109 -202 108q-39 0 -72 -2v152q33 -2 64 -2q207 0 206 104q0 88 -143 88q-102 0 -201 -47l-12 154q131 39 240 39q150 0 231.5 -57.5t81.5 -159.5q0 -131 -131 -189q139 -53 139 -203q0 -113 -95 -177t-261 -64 q-117 -1 -230 30z" />
<glyph unicode="&#xf659;" horiz-adv-x="724" d="M27 162v149l323 514h236v-520h110v-143h-110v-162h-191v162h-368zM211 305h188l2 324z" />
<glyph unicode="&#xf65a;" horiz-adv-x="724" d="M96 14l4 170q96 -45 191 -45q76 0 122 34t46 91q0 59 -50.5 95t-134.5 36q-74 0 -165 -26l8 452h518v-145h-336l-4 -139l59 2q137 4 223.5 -72t86.5 -197q0 -133 -95.5 -207.5t-267.5 -74.5q-70 -1 -205 26z" />
<glyph unicode="&#xf65b;" horiz-adv-x="724" d="M375 -12q-311 0 -312 393q0 457 363 457q88 0 201 -31l-25 -150q-80 35 -149 35q-178 0 -199 -203q47 35 77.5 46.5t80.5 11.5q117 0 188.5 -78t71.5 -203q0 -129 -80 -203.5t-217 -74.5zM262 272q0 -66 30 -105.5t79 -39.5t77.5 37t28.5 98q0 66 -29.5 103.5t-80.5 37.5 q-47 0 -76 -35t-29 -96z" />
<glyph unicode="&#xf65c;" horiz-adv-x="724" d="M135 0l320 678h-381v143h579v-135l-305 -686h-213z" />
<glyph unicode="&#xf65d;" horiz-adv-x="724" d="M53 229q0 72 37 127.5t100 75.5q-68 37 -95 79t-27 103q0 100 80.5 162t213.5 62q131 0 209 -55.5t78 -149.5q0 -123 -123 -187q78 -37 113 -86t35 -124q0 -117 -83 -182.5t-229 -65.5q-141 0 -225 65t-84 176zM379 504q86 45 86 110q0 39 -28.5 65t-74.5 26 q-47 0 -77.5 -25t-30.5 -62q0 -39 26.5 -63t98.5 -51zM248 231q0 -45 33.5 -75.5t87.5 -30.5q51 0 80.5 27.5t29.5 74.5q0 45 -29.5 74t-101.5 53l-16 -6q-84 -31 -84 -117z" />
<glyph unicode="&#xf65e;" horiz-adv-x="724" d="M98 16l23 152q86 -35 149 -35q174 0 201 203q-63 -57 -156 -57q-119 0 -190.5 76.5t-71.5 201.5q0 133 80 207t223 74q305 0 306 -385q0 -465 -359 -465q-117 -1 -205 28zM358 422q47 0 75 35t28 92q0 68 -30 108.5t-79 40.5q-45 0 -74.5 -38.5t-29.5 -100t30.5 -99.5 t79.5 -38z" />
<glyph unicode="&#xf65f;" horiz-adv-x="378" d="M33 -131l82 309h198l-116 -309h-164z" />
<glyph unicode="&#xf660;" horiz-adv-x="378" d="M92 0v178h195v-178h-195z" />
<glyph unicode="&#xf661;" horiz-adv-x="724" d="M362.5 535q-151.5 0 -230.5 106.5t-79 308.5q0 434 309 434q170 0 250 -135q61 -102 61.5 -303t-79.5 -306t-231.5 -105zM364.5 674q116.5 0 116.5 274q0 297 -119 297q-115 0 -114 -295q0 -276 116.5 -276z" />
<glyph unicode="&#xf662;" horiz-adv-x="724" d="M319 547v618l-137 -110l-102 121l266 194h164v-823h-191z" />
<glyph unicode="&#xf663;" horiz-adv-x="724" d="M57 547v149q369 311 369 432q0 49 -34 78t-91 29q-96 0 -211 -76l-16 166q147 59 272 59q129 0 206 -64.5t77 -172.5q0 -117 -137 -277q-78 -92 -177 -178l338 2v-147h-596z" />
<glyph unicode="&#xf664;" horiz-adv-x="724" d="M61 563l13 162q106 -47 202 -47q80 0 125 29.5t45 80.5q0 109 -202 109q-39 0 -72 -2v152q31 -2 64 -3q207 0 206 107q0 88 -143 88q-102 0 -201 -47l-12 154q131 39 240 38q150 0 231.5 -57t81.5 -162q0 -131 -131 -188q139 -53 139 -203q0 -113 -95 -177.5t-261 -64.5 q-117 0 -230 31z" />
<glyph unicode="&#xf665;" horiz-adv-x="724" d="M395 547v162h-368v149l323 512h236v-518h110v-143h-110v-162h-191zM211 852h188l2 324z" />
<glyph unicode="&#xf666;" horiz-adv-x="724" d="M96 559l4 170q96 -45 191 -45q76 0 122 34t46 91q0 59 -50.5 95t-134.5 36q-74 0 -165 -27l8 453h518v-145h-336l-4 -140l59 2q137 4 223.5 -71.5t86.5 -196.5q0 -133 -95.5 -208t-267.5 -75q-70 0 -205 27z" />
<glyph unicode="&#xf667;" horiz-adv-x="724" d="M375 535q-311 0 -312 393q0 457 363 456q88 0 201 -30l-25 -150q-80 35 -149 35q-178 0 -199 -203q47 35 77.5 46.5t80.5 11.5q117 0 188.5 -78t71.5 -203q0 -129 -80 -203.5t-217 -74.5zM371 674q49 0 77.5 37t28.5 98q0 66 -29.5 103.5t-80.5 37.5q-47 0 -76 -34.5 t-29 -96.5q0 -66 30 -105.5t79 -39.5z" />
<glyph unicode="&#xf668;" horiz-adv-x="724" d="M135 547l320 676h-381v143h579v-135l-305 -684h-213z" />
<glyph unicode="&#xf669;" horiz-adv-x="724" d="M362 535q-141 0 -225 65.5t-84 175.5q0 72 37 127t100 76q-68 37 -95 79t-27 103q0 100 80.5 161.5t213.5 61.5q131 0 209 -55t78 -149q0 -123 -123 -187q78 -37 113 -86t35 -125q0 -117 -83.5 -182t-228.5 -65zM379 1051q86 47 86 110q0 39 -28.5 64.5t-74.5 25.5 q-47 0 -77.5 -24.5t-30.5 -61.5q0 -39 26.5 -63t98.5 -51zM369 672q51 0 80.5 27.5t29.5 74.5q0 45 -29.5 74t-101.5 53l-16 -6q-84 -31 -84 -117q0 -45 34 -75.5t87 -30.5z" />
<glyph unicode="&#xf66a;" horiz-adv-x="724" d="M98 563l23 152q86 -35 149 -35q174 0 201 203q-63 -57 -156 -58q-119 0 -190.5 77t-71.5 202q0 133 80 206.5t223 73.5q305 0 306 -385q0 -465 -359 -464q-117 -1 -205 28zM358 969q47 0 75 34.5t28 92.5q0 68 -30 108.5t-79 40.5q-45 0 -74.5 -39t-29.5 -100.5t30.5 -99 t79.5 -37.5z" />
<glyph unicode="&#xf66b;" horiz-adv-x="378" d="M33 416l82 309h198l-116 -309h-164z" />
<glyph unicode="&#xf66c;" horiz-adv-x="378" d="M92 547v178h195v-178h-195z" />
<glyph unicode="&#xf6e1;" horiz-adv-x="268" d="M23 -88l57 215h141l-82 -215h-116z" />
<glyph unicode="&#xf6e2;" horiz-adv-x="268" d="M23 731l57 215h141l-82 -215h-116z" />
<glyph unicode="&#xf6e5;" horiz-adv-x="505" d="M0 629v108h506v-108h-506z" />
<glyph unicode="&#xf6e6;" horiz-adv-x="505" d="M0 629v108h506v-108h-506z" />
<glyph unicode="&#xf6e7;" horiz-adv-x="268" d="M66 0v127h139v-127h-139z" />
<glyph unicode="&#xf6e8;" horiz-adv-x="268" d="M66 819v127h139v-127h-139z" />
<glyph unicode="&#xf8ff;" horiz-adv-x="1638" d="M72 207v1300h1288q86 0 146.5 -60.5t60.5 -146.5v-1300h-1288q-86 0 -146.5 60.5t-60.5 146.5zM616.5 774q69.5 0 106.5 39t37 109v354q0 147 -143.5 147t-143.5 -147v-354q0 -70 37 -109t106.5 -39zM815 784h111v484q0 47 32.5 47t32.5 -47v-484h111v496q0 139 -119 139 q-45 0 -55 -20v14h-113v-629zM1184 922q0 -70 36.5 -109t106.5 -39t106.5 39t36.5 109v69h-110v-63q0 -47 -33 -47t-33 47v270h160v107h-162v108h-110v-108h-37v-107h39v-276zM184 784h111v211h121v123h-121v172h137v123h-248v-629zM616.5 883q-32.5 0 -32.5 45v340 q0 47 32.5 47t32.5 -47v-340q0 -45 -32.5 -45zM1069 233q0 -70 37 -108.5t106.5 -38.5t106.5 39t37 108v25h-111v-18q0 -45 -32.5 -45t-32.5 45v82h176v262q0 147 -143.5 147t-143.5 -147v-351zM176 252q0 -166 149.5 -166t149.5 182q0 51 -24.5 93t-110.5 102 q-51 35 -51 82q0 78 39 78q37 0 37 -66v-51h110v59q0 166 -149.5 166t-149.5 -182q0 -35 6 -59.5t38 -62.5t91 -77q51 -35 51 -78q0 -78 -38 -77q-37 0 -37 65v21h-111v-29zM739 233q0 -70 37 -108.5t106.5 -38.5t106.5 39t37 108v70h-111v-63q0 -45 -32.5 -45t-32.5 45v264 h160v106h-162v113h-111v-113h-37v-106h39v-271zM537 598h110v125h-110v-125zM1180 416v159q0 47 32.5 47.5t32.5 -47.5v-159h-65zM537 94h110v441h-110v-441zM1440 94h12v43l18 -43h9l18 43v-43h12v64h-16l-18 -43l-19 43h-16v-64zM1376 145h21v-51h12v51h21v13h-54v-13z " />
</font>
</defs>
</svg>
